<svg width="60" height="71" viewBox="0 0 60 71" fill="none" xmlns="http://www.w3.org/2000/svg">
<path d="M29.7477 37.9156C29.8197 37.9156 29.8917 37.9156 29.9782 37.9156C30.007 37.9156 30.0358 37.9156 30.0646 37.9156C30.1078 37.9156 30.1654 37.9156 30.2087 37.9156C34.4298 37.8435 37.8441 36.3597 40.3653 33.5216C45.9118 27.2691 44.9898 16.5506 44.889 15.5278C44.5288 7.84907 40.8983 4.17539 37.9018 2.46101C35.6687 1.17883 33.0612 0.487314 30.151 0.429688H30.0502C30.0358 0.429688 30.007 0.429688 29.9926 0.429688H29.9061C28.307 0.429688 25.1664 0.689006 22.1554 2.40339C19.13 4.11777 15.4419 7.79144 15.0818 15.5278C14.9809 16.5506 14.0589 27.2691 19.6054 33.5216C22.1122 36.3597 25.5265 37.8435 29.7477 37.9156ZM18.9283 15.8879C18.9283 15.8447 18.9427 15.8015 18.9427 15.7727C19.4181 5.44317 26.7511 4.33387 29.8917 4.33387H29.9493C29.9782 4.33387 30.0214 4.33387 30.0646 4.33387C33.9544 4.42031 40.567 6.00503 41.0136 15.7727C41.0136 15.8159 41.0136 15.8591 41.028 15.8879C41.0424 15.9888 42.0509 25.7852 37.4696 30.9428C35.6543 32.9885 33.234 33.997 30.0502 34.0258C30.0214 34.0258 30.007 34.0258 29.9782 34.0258C29.9493 34.0258 29.9349 34.0258 29.9061 34.0258C26.7367 33.997 24.302 32.9885 22.5011 30.9428C17.9343 25.8141 18.9139 15.9744 18.9283 15.8879Z" fill="#3D4853"/>
<path d="M59.5838 55.6966C59.5838 55.6822 59.5838 55.6678 59.5838 55.6534C59.5838 55.5382 59.5694 55.4229 59.5694 55.2933C59.4829 52.4408 59.2956 45.7705 53.0432 43.6384C53 43.624 52.9424 43.6095 52.8991 43.5951C46.4018 41.9384 40.9993 38.1927 40.9417 38.1495C40.0629 37.53 38.8527 37.7461 38.2333 38.6249C37.6138 39.5037 37.8299 40.7138 38.7087 41.3333C38.9536 41.5062 44.6874 45.4968 51.8619 47.3408C55.2186 48.5366 55.5932 52.1238 55.694 55.4085C55.694 55.5382 55.694 55.6534 55.7084 55.7687C55.7228 57.0653 55.6364 59.0678 55.4059 60.2203C53.072 61.5457 43.9238 66.127 30.0071 66.127C16.148 66.127 6.9422 61.5313 4.59393 60.2059C4.36343 59.0534 4.26258 57.0509 4.2914 55.7543C4.2914 55.639 4.3058 55.5238 4.3058 55.3941C4.40665 52.1094 4.78122 48.5222 8.13795 47.3264C15.3124 45.4824 21.0462 41.4774 21.2911 41.3189C22.1699 40.6994 22.386 39.4893 21.7666 38.6105C21.1471 37.7317 19.9369 37.5156 19.0581 38.1351C19.0005 38.1783 13.6268 41.924 7.10068 43.5807C7.04305 43.5951 6.99983 43.6095 6.95661 43.624C0.704162 45.7705 0.516877 52.4408 0.430437 55.2789C0.430437 55.4085 0.430437 55.5238 0.41603 55.639C0.41603 55.6534 0.41603 55.6678 0.41603 55.6822C0.401624 56.4314 0.387218 60.2779 1.15077 62.2084C1.29483 62.583 1.55415 62.8999 1.89991 63.116C2.3321 63.4042 12.6904 70.0023 30.0215 70.0023C47.3526 70.0023 57.7109 63.3897 58.1431 63.116C58.4745 62.8999 58.7482 62.583 58.8923 62.2084C59.6126 60.2923 59.5982 56.4458 59.5838 55.6966Z" fill="#3D4853"/>
</svg>
