<svg width="8" height="14" viewBox="0 0 8 14" fill="none" xmlns="http://www.w3.org/2000/svg">
<path fill-rule="evenodd" clip-rule="evenodd" d="M7.74945 7.58622L1.43178 13.7637C1.27395 13.918 1.05992 14.0047 0.83672 14.0047C0.613522 14.0047 0.399431 13.918 0.241606 13.7637C0.0837818 13.6094 -0.00488281 13.4001 -0.00488281 13.1819C-0.00488281 12.9636 0.0837818 12.7543 0.241606 12.6L5.9687 7.00874L0.241606 1.41748C0.0837818 1.26316 -0.00488281 1.05387 -0.00488281 0.835625C-0.00488281 0.617379 0.0837818 0.408038 0.241606 0.253716C0.399431 0.0993927 0.613522 0.0126953 0.83672 0.0126953C1.05992 0.0126953 1.27395 0.0993927 1.43178 0.253716L7.74945 6.43121C7.90465 6.58512 7.99168 6.7926 7.99168 7.00874C7.99168 7.22488 7.90465 7.43232 7.74945 7.58622Z" fill="#BDCAD8"/>
</svg>
