<svg width="64" height="64" viewBox="0 0 64 64" fill="none" xmlns="http://www.w3.org/2000/svg">
<path d="M17.6699 43.4399C15.9887 43.4873 14.3152 43.1971 12.748 42.5865C11.1809 41.9759 9.7523 41.0572 8.54639 39.8848C7.34047 38.7124 6.38161 37.3101 5.72705 35.7609C5.07249 34.2116 4.73535 32.5468 4.73535 30.8649C4.73535 29.183 5.07249 27.5182 5.72705 25.969C6.38161 24.4197 7.34047 23.0174 8.54639 21.845C9.7523 20.6726 11.1809 19.7539 12.748 19.1433C14.3152 18.5327 15.9887 18.2425 17.6699 18.2899C17.9351 18.2899 18.1894 18.3953 18.377 18.5828C18.5645 18.7704 18.6699 19.0247 18.6699 19.2899C18.6699 19.5551 18.5645 19.8095 18.377 19.997C18.1894 20.1845 17.9351 20.2899 17.6699 20.2899C16.2538 20.2464 14.8435 20.4877 13.5225 20.9995C12.2014 21.5114 10.9966 22.2833 9.97949 23.2696C8.96241 24.2559 8.15378 25.4364 7.60156 26.7411C7.04935 28.0458 6.76465 29.4482 6.76465 30.8649C6.76465 32.2817 7.04935 33.684 7.60156 34.9887C8.15378 36.2934 8.96241 37.4739 9.97949 38.4602C10.9966 39.4465 12.2014 40.2185 13.5225 40.7303C14.8435 41.2422 16.2538 41.4835 17.6699 41.4399C17.9351 41.4399 18.1894 41.5453 18.377 41.7328C18.5645 41.9204 18.6699 42.1747 18.6699 42.4399C18.6699 42.7051 18.5645 42.9595 18.377 43.147C18.1894 43.3346 17.9351 43.4399 17.6699 43.4399Z" fill="#3D4853"/>
<path d="M48.23 20.29H17.6602C17.3949 20.29 17.1402 20.1847 16.9526 19.9971C16.7651 19.8096 16.6602 19.5553 16.6602 19.29C16.6602 19.0248 16.7651 18.7705 16.9526 18.5829C17.1402 18.3954 17.3949 18.29 17.6602 18.29H48.23C48.4952 18.29 48.7495 18.3954 48.937 18.5829C49.1245 18.7705 49.23 19.0248 49.23 19.29C49.23 19.5553 49.1245 19.8096 48.937 19.9971C48.7495 20.1847 48.4952 20.29 48.23 20.29Z" fill="#3D4853"/>
<path d="M48.23 43.4399H17.6602C17.3949 43.4399 17.1402 43.3346 16.9526 43.1471C16.7651 42.9595 16.6602 42.7052 16.6602 42.4399C16.6602 42.1747 16.7651 41.9204 16.9526 41.7328C17.1402 41.5453 17.3949 41.4399 17.6602 41.4399H48.23C48.4952 41.4399 48.7495 41.5453 48.937 41.7328C49.1245 41.9204 49.23 42.1747 49.23 42.4399C49.23 42.7052 49.1245 42.9595 48.937 43.1471C48.7495 43.3346 48.4952 43.4399 48.23 43.4399Z" fill="#3D4853"/>
<path d="M48.2305 43.44C47.9653 43.44 47.711 43.3347 47.5234 43.1472C47.3359 42.9596 47.2305 42.7052 47.2305 42.44V19.29C47.2305 19.0248 47.3359 18.7705 47.5234 18.5829C47.711 18.3954 47.9653 18.29 48.2305 18.29C48.4957 18.29 48.75 18.3954 48.9375 18.5829C49.125 18.7705 49.2305 19.0248 49.2305 19.29V42.44C49.2305 42.7052 49.125 42.9596 48.9375 43.1472C48.75 43.3347 48.4957 43.44 48.2305 43.44Z" fill="#3D4853"/>
<path d="M48.2304 20.2901C48.0318 20.2913 47.8373 20.2333 47.6718 20.1235C47.5063 20.0137 47.3774 19.857 47.3012 19.6736C47.2251 19.4902 47.205 19.2882 47.2441 19.0934C47.2832 18.8987 47.3794 18.72 47.5205 18.5801L57.2001 8.9001C57.3914 8.73627 57.6379 8.65069 57.8896 8.66041C58.1413 8.67014 58.38 8.77446 58.5581 8.95256C58.7361 9.13065 58.8403 9.36937 58.85 9.62105C58.8598 9.87272 58.7741 10.1188 58.6103 10.3101L48.9306 19.9901C48.746 20.1785 48.4942 20.2864 48.2304 20.2901Z" fill="#3D4853"/>
<path d="M57.9402 53.13C57.8086 53.1307 57.6782 53.1055 57.5564 53.0558C57.4346 53.006 57.3237 52.9327 57.2302 52.84L47.5501 43.16C47.3862 42.9687 47.3006 42.7226 47.3103 42.4709C47.32 42.2193 47.4247 41.9805 47.6028 41.8024C47.7809 41.6243 48.0196 41.52 48.2713 41.5103C48.5229 41.5005 48.7689 41.5862 48.9602 41.75L58.6404 51.43C58.7774 51.5698 58.87 51.7467 58.9075 51.9388C58.9449 52.131 58.9254 52.3298 58.8508 52.5108C58.7763 52.6918 58.6504 52.847 58.4885 52.957C58.3267 53.0671 58.1359 53.1272 57.9402 53.13Z" fill="#3D4853"/>
<path d="M57.9404 53.1301C57.6752 53.1301 57.4209 53.0248 57.2334 52.8372C57.0459 52.6497 56.9404 52.3953 56.9404 52.1301V9.61011C56.9404 9.34489 57.0459 9.09052 57.2334 8.90298C57.4209 8.71545 57.6752 8.61011 57.9404 8.61011C58.2056 8.61011 58.4599 8.71545 58.6475 8.90298C58.835 9.09052 58.9404 9.34489 58.9404 9.61011V52.1301C58.9404 52.3953 58.835 52.6497 58.6475 52.8372C58.4599 53.0248 58.2056 53.1301 57.9404 53.1301Z" fill="#3D4853"/>
<path d="M23.4497 55.3901C21.6497 55.3875 19.9242 54.6712 18.6514 53.3984C17.3786 52.1256 16.6628 50.4001 16.6602 48.6001C16.6602 48.3349 16.7651 48.0805 16.9526 47.893C17.1402 47.7055 17.3949 47.6001 17.6602 47.6001C17.9254 47.6001 18.1797 47.7055 18.3672 47.893C18.5547 48.0805 18.6602 48.3349 18.6602 48.6001C18.6602 49.8705 19.1647 51.0889 20.063 51.9872C20.9613 52.8855 22.1793 53.3901 23.4497 53.3901C24.7201 53.3901 25.9386 52.8855 26.8369 51.9872C27.7352 51.0889 28.2397 49.8705 28.2397 48.6001C28.2397 48.3349 28.3452 48.0805 28.5327 47.893C28.7203 47.7055 28.9745 47.6001 29.2397 47.6001C29.505 47.6001 29.7597 47.7055 29.9473 47.893C30.1348 48.0805 30.2397 48.3349 30.2397 48.6001C30.2371 50.4001 29.5208 52.1256 28.248 53.3984C26.9752 54.6712 25.2497 55.3875 23.4497 55.3901Z" fill="#3D4853"/>
<path d="M17.6699 49.5999C17.4047 49.5999 17.1504 49.4946 16.9629 49.3071C16.7754 49.1195 16.6699 48.8652 16.6699 48.5999V42.4399C16.6699 42.1747 16.7754 41.9204 16.9629 41.7328C17.1504 41.5453 17.4047 41.4399 17.6699 41.4399C17.9351 41.4399 18.1894 41.5453 18.377 41.7328C18.5645 41.9204 18.6699 42.1747 18.6699 42.4399V48.5999C18.6699 48.8652 18.5645 49.1195 18.377 49.3071C18.1894 49.4946 17.9351 49.5999 17.6699 49.5999Z" fill="#3D4853"/>
<path d="M29.2402 49.5999C28.975 49.5999 28.7207 49.4946 28.5332 49.3071C28.3457 49.1195 28.2402 48.8652 28.2402 48.5999V42.4399C28.2402 42.1747 28.3457 41.9204 28.5332 41.7328C28.7207 41.5453 28.975 41.4399 29.2402 41.4399C29.5055 41.4399 29.7602 41.5453 29.9478 41.7328C30.1353 41.9204 30.2402 42.1747 30.2402 42.4399V48.5999C30.2402 48.8652 30.1353 49.1195 29.9478 49.3071C29.7602 49.4946 29.5055 49.5999 29.2402 49.5999Z" fill="#3D4853"/>
<path d="M36.6602 43.44C36.3949 43.44 36.1402 43.3347 35.9526 43.1472C35.7651 42.9596 35.6602 42.7052 35.6602 42.44V19.29C35.6602 19.0248 35.7651 18.7705 35.9526 18.5829C36.1402 18.3954 36.3949 18.29 36.6602 18.29C36.9254 18.29 37.1797 18.3954 37.3672 18.5829C37.5547 18.7705 37.6602 19.0248 37.6602 19.29V42.44C37.6602 42.7052 37.5547 42.9596 37.3672 43.1472C37.1797 43.3347 36.9254 43.44 36.6602 43.44Z" fill="#3D4853"/>
<path d="M23.4502 55.39C23.185 55.39 22.9307 55.2846 22.7432 55.097C22.5556 54.9095 22.4502 54.6552 22.4502 54.39V42.4399C22.4502 42.1747 22.5556 41.9204 22.7432 41.7328C22.9307 41.5453 23.185 41.4399 23.4502 41.4399C23.7154 41.4399 23.9702 41.5453 24.1577 41.7328C24.3453 41.9204 24.4502 42.1747 24.4502 42.4399V54.39C24.4502 54.6552 24.3453 54.9095 24.1577 55.097C23.9702 55.2846 23.7154 55.39 23.4502 55.39Z" fill="#3D4853"/>
<path d="M32.0605 26.9099H16.7402C16.475 26.9099 16.2207 26.8046 16.0332 26.617C15.8457 26.4295 15.7402 26.1751 15.7402 25.9099C15.7402 25.6447 15.8457 25.3904 16.0332 25.2028C16.2207 25.0153 16.475 24.9099 16.7402 24.9099H32.0703C32.3355 24.9112 32.5893 25.0179 32.7759 25.2064C32.9625 25.3948 33.0668 25.6497 33.0654 25.9149C33.0641 26.1801 32.9575 26.4339 32.769 26.6205C32.5806 26.8071 32.3258 26.9112 32.0605 26.9099Z" fill="#3D4853"/>
<path d="M32.0605 31.8401H16.7402C16.475 31.8401 16.2207 31.7347 16.0332 31.5472C15.8457 31.3597 15.7402 31.1053 15.7402 30.8401C15.7402 30.5749 15.8457 30.3205 16.0332 30.133C16.2207 29.9455 16.475 29.8401 16.7402 29.8401H32.0703C32.3355 29.8414 32.5893 29.9481 32.7759 30.1365C32.9625 30.325 33.0668 30.5799 33.0654 30.8451C33.0641 31.1103 32.9575 31.3642 32.769 31.5508C32.5806 31.7373 32.3258 31.8414 32.0605 31.8401Z" fill="#3D4853"/>
</svg>
