<svg width="70" height="70" viewBox="0 0 70 70" fill="none" xmlns="http://www.w3.org/2000/svg">
<g clip-path="url(#clip0)">
<path d="M6.68777 6.55133C7.45055 6.55133 8.06891 5.93297 8.06891 5.1702C8.06891 4.40742 7.45055 3.78906 6.68777 3.78906C5.92499 3.78906 5.30664 4.40742 5.30664 5.1702C5.30664 5.93297 5.92499 6.55133 6.68777 6.55133Z" fill="#3D4853"/>
<path d="M12.3499 6.55133C13.1127 6.55133 13.731 5.93297 13.731 5.1702C13.731 4.40742 13.1127 3.78906 12.3499 3.78906C11.5871 3.78906 10.9688 4.40742 10.9688 5.1702C10.9688 5.93297 11.5871 6.55133 12.3499 6.55133Z" fill="#3D4853"/>
<path d="M18.012 6.55133C18.7748 6.55133 19.3931 5.93297 19.3931 5.1702C19.3931 4.40742 18.7748 3.78906 18.012 3.78906C17.2492 3.78906 16.6309 4.40742 16.6309 5.1702C16.6309 5.93297 17.2492 6.55133 18.012 6.55133Z" fill="#3D4853"/>
<path d="M66.2402 0H3.75977C1.68656 0 0 1.68656 0 3.75977V35.3504C0 35.9167 0.459102 36.3758 1.02539 36.3758C1.59168 36.3758 2.05078 35.9167 2.05078 35.3504V10.3373H67.9492V20.2971C67.9492 20.8634 68.4083 21.3225 68.9746 21.3225C69.5409 21.3225 70 20.8634 70 20.2971V3.75977C70 1.68656 68.3134 0 66.2402 0ZM2.05078 8.28652V3.75977C2.05078 2.81736 2.81736 2.05078 3.75977 2.05078H66.2402C67.1826 2.05078 67.9492 2.81736 67.9492 3.75977V8.28652H2.05078Z" fill="#3D4853"/>
<path d="M68.9746 24.0742C68.4083 24.0742 67.9492 24.5333 67.9492 25.0996V66.2406C67.9492 67.183 67.1826 67.9496 66.2402 67.9496H3.75977C2.81736 67.9496 2.05078 67.183 2.05078 66.2406V40.1359C2.05078 39.5696 1.59168 39.1105 1.02539 39.1105C0.459102 39.1105 0 39.5696 0 40.1359V66.2406C0 68.3138 1.68656 70.0004 3.75977 70.0004H66.2402C68.3134 70.0004 70 68.3138 70 66.2406V25.0996C70 24.5333 69.5409 24.0742 68.9746 24.0742Z" fill="#3D4853"/>
<path d="M31.6854 13.5352H6.27344C5.70715 13.5352 5.24805 13.9943 5.24805 14.5605V63.5889C5.24805 64.1551 5.70715 64.6142 6.27344 64.6142H31.6854C32.2516 64.6142 32.7107 64.1551 32.7107 63.5889V63.3968V14.5604C32.7107 13.9943 32.2516 13.5352 31.6854 13.5352ZM7.29883 15.5859H30.6598V62.5636H7.95986L7.29883 15.5859Z" fill="#3D4853"/>
<path d="M38.3145 40.9979H63.7264C64.2927 40.9979 64.7518 40.5388 64.7518 39.9725V14.5605C64.7518 13.9943 64.2927 13.5352 63.7264 13.5352H38.3145C37.7482 13.5352 37.2891 13.9943 37.2891 14.5605V39.9725C37.2891 40.5388 37.7482 40.9979 38.3145 40.9979ZM62.701 38.9471H39.34V15.5859H51.0205H62.701V38.9471Z" fill="#3D4853"/>
<path d="M38.3145 45.6914H63.7264C64.2927 45.6914 64.7518 45.2323 64.7518 44.666C64.7518 44.0997 64.2927 43.6406 63.7264 43.6406H38.3145C37.7482 43.6406 37.2891 44.0997 37.2891 44.666C37.2891 45.2323 37.7482 45.6914 38.3145 45.6914Z" fill="#3D4853"/>
<path d="M38.3145 51.2188H63.7264C64.2927 51.2188 64.7518 50.7596 64.7518 50.1934C64.7518 49.6271 64.2927 49.168 63.7264 49.168H38.3145C37.7482 49.168 37.2891 49.6271 37.2891 50.1934C37.2891 50.7596 37.7482 51.2188 38.3145 51.2188Z" fill="#3D4853"/>
<path d="M38.3145 56.7422H52.5395C53.1058 56.7422 53.5649 56.2831 53.5649 55.7168C53.5649 55.1505 53.1058 54.6914 52.5395 54.6914H38.3145C37.7482 54.6914 37.2891 55.1505 37.2891 55.7168C37.2891 56.2831 37.7482 56.7422 38.3145 56.7422Z" fill="#3D4853"/>
</g>
<defs>
<clipPath id="clip0">
<rect width="70" height="70" fill="white"/>
</clipPath>
</defs>
</svg>
