<svg width="24" height="22" viewBox="0 0 24 22" fill="none" xmlns="http://www.w3.org/2000/svg">
<g clip-path="url(#clip0)">
<path d="M23.99 3.67003C23.9974 3.60023 23.9974 3.52988 23.99 3.46007C23.9784 3.40204 23.9617 3.34511 23.94 3.29003C23.8653 3.11307 23.7308 2.96793 23.56 2.88C23.5036 2.84056 23.4433 2.80707 23.38 2.78002C23.3301 2.77626 23.2799 2.77626 23.23 2.78002C23.1801 2.77626 23.1299 2.77626 23.08 2.78002H4.65999L4.03999 0.78002C4.01294 0.716739 3.97943 0.656488 3.93999 0.600088C3.91124 0.54718 3.87778 0.496951 3.84 0.450064C3.79396 0.405343 3.74372 0.365163 3.68999 0.330069C3.64035 0.288299 3.58676 0.251473 3.52998 0.220084H3.35999C3.29018 0.212713 3.2198 0.212713 3.14999 0.220084H0.98999C0.724774 0.220084 0.470419 0.325394 0.282883 0.51293C0.0953463 0.700467 -0.0100098 0.954867 -0.0100098 1.22008C-0.0100098 1.4853 0.0953463 1.73958 0.282883 1.92711C0.470419 2.11465 0.724774 2.22008 0.98999 2.22008H2.31L5.54999 12.39C5.56014 12.549 5.60814 12.7034 5.68999 12.8401L6.90999 16.66C6.96043 16.7707 7.02424 16.8749 7.09999 16.9701L7.18999 17.06C7.25123 17.1112 7.31837 17.1549 7.38998 17.1901L7.49998 17.24C7.61464 17.2853 7.7367 17.3091 7.85999 17.31H19.01C19.2752 17.31 19.5296 17.2046 19.7171 17.0171C19.9046 16.8295 20.01 16.5753 20.01 16.31C20.01 16.0448 19.9046 15.7904 19.7171 15.6029C19.5296 15.4154 19.2752 15.31 19.01 15.31H8.63998L8.00999 13.31H20.33C20.4533 13.3091 20.5753 13.2853 20.69 13.24L20.79 13.1901C20.8616 13.1549 20.9287 13.1112 20.99 13.06L21.08 12.9701C21.1305 12.912 21.1741 12.8481 21.21 12.78C21.2327 12.7414 21.2527 12.7013 21.27 12.66L23.94 4.18004C23.9437 4.13012 23.9437 4.07995 23.94 4.03002C23.9785 3.91408 23.9955 3.79208 23.99 3.67003ZM19.57 11.14H16.81V4.68004H21.6L19.57 11.14ZM14.79 11.14H11.91V4.68004H14.79V11.14ZM5.29999 4.68004H9.87999V11.14H7.34999L5.29999 4.68004Z" fill="black"/>
<path d="M9.02996 21.28C9.89705 21.28 10.6 20.5771 10.6 19.71C10.6 18.8429 9.89705 18.14 9.02996 18.14C8.16287 18.14 7.45996 18.8429 7.45996 19.71C7.45996 20.5771 8.16287 21.28 9.02996 21.28Z" fill="black"/>
<path d="M17.4101 21.28C18.2772 21.28 18.9801 20.5771 18.9801 19.71C18.9801 18.8429 18.2772 18.14 17.4101 18.14C16.543 18.14 15.8401 18.8429 15.8401 19.71C15.8401 20.5771 16.543 21.28 17.4101 21.28Z" fill="black"/>
</g>
<defs>
<clipPath id="clip0">
<rect width="24" height="21.29" fill="white"/>
</clipPath>
</defs>
</svg>
