<svg width="84" height="84" viewBox="0 0 84 84" fill="none" xmlns="http://www.w3.org/2000/svg">
<path d="M40.5725 30.1905C40.5725 30.9077 40.8805 31.9641 43.5444 32.852C44.6758 33.2291 48.1188 34.3768 48.1188 37.7368C48.1188 40.0598 46.5084 42.0126 44.3457 42.5404V43.0423C44.3457 43.6896 43.8211 44.2141 43.174 44.2141C42.5269 44.2141 42.0023 43.6896 42.0023 43.0423V42.5404C39.8394 42.0126 38.229 40.0598 38.229 37.7368C38.229 37.0895 38.7536 36.5651 39.4007 36.5651C40.0478 36.5651 40.5725 37.0895 40.5725 37.7368C40.5725 39.1715 41.7395 40.3383 43.174 40.3383C44.6085 40.3383 45.7754 39.1713 45.7754 37.7368C45.7754 36.9105 45.4223 35.9481 42.8034 35.0753C39.768 34.0634 38.229 32.42 38.229 30.1905C38.229 27.8676 39.8394 25.9148 42.0023 25.387V24.8851C42.0023 24.2378 42.5269 23.7133 43.174 23.7133C43.8211 23.7133 44.3457 24.2378 44.3457 24.8851V25.387C46.5084 25.9148 48.1188 27.8676 48.1188 30.1905C48.1188 30.8377 47.5942 31.3622 46.9471 31.3622C46.3 31.3622 45.7754 30.8377 45.7754 30.1905C45.7754 28.756 44.6083 27.5891 43.174 27.5891C41.7396 27.5891 40.5725 28.756 40.5725 30.1905ZM84 13.5272V54.4001C84 55.0473 83.4754 55.5718 82.8283 55.5718H81.652V62.2745C81.652 62.6054 81.512 62.921 81.2669 63.1431C81.0504 63.339 80.7696 63.4462 80.4805 63.4462C80.4419 63.4462 80.4033 63.4443 80.3645 63.4404L76.9562 63.102V70.4761C76.9562 70.8302 76.7961 71.1652 76.5207 71.3877C76.3104 71.5575 76.0499 71.6478 75.7845 71.6478C75.7023 71.6478 75.6195 71.639 75.5377 71.6215L0.938001 55.5483C0.93597 55.5479 0.934095 55.5476 0.932064 55.5471L0.925034 55.5455C0.90738 55.5418 0.890507 55.5365 0.873166 55.5319C0.859886 55.5285 0.846294 55.5255 0.833171 55.5216C0.81708 55.5168 0.801457 55.5108 0.785521 55.5054C0.779741 55.5033 0.773804 55.5013 0.768024 55.4991C0.756306 55.4949 0.744433 55.4913 0.732872 55.4866C0.73006 55.4855 0.727404 55.4843 0.724592 55.4832C0.710375 55.4773 0.69647 55.4704 0.682566 55.464C0.667881 55.4573 0.653039 55.4512 0.638666 55.4438C0.635072 55.442 0.631635 55.4398 0.628042 55.4377C0.627573 55.4376 0.627105 55.4373 0.62648 55.437C0.6132 55.4299 0.600389 55.4224 0.587422 55.4149C0.574455 55.4074 0.561332 55.4006 0.548834 55.3926C0.542897 55.3888 0.537273 55.3846 0.531336 55.3807C0.519931 55.3734 0.508839 55.3654 0.497747 55.3577C0.486654 55.3499 0.47525 55.3423 0.46447 55.334C0.456971 55.3284 0.449784 55.3223 0.442442 55.3163C0.432599 55.3085 0.422913 55.3006 0.413383 55.2924C0.404165 55.2845 0.394792 55.2767 0.38573 55.2685C0.376981 55.2607 0.368701 55.2523 0.360265 55.2442C0.351829 55.236 0.343392 55.2282 0.335268 55.22C0.327925 55.2123 0.320739 55.2046 0.313552 55.197C0.304022 55.1867 0.294805 55.1759 0.285587 55.1651C0.278401 55.1568 0.270902 55.149 0.264028 55.1406C0.258403 55.1337 0.253248 55.1265 0.24778 55.1195C0.238406 55.1075 0.229501 55.0951 0.220596 55.0828C0.214503 55.0742 0.207785 55.0662 0.201848 55.0575C0.197161 55.0504 0.193099 55.0431 0.188413 55.0359C0.179976 55.0229 0.172009 55.0098 0.164041 54.9964C0.158417 54.9869 0.152324 54.9775 0.147012 54.9676C0.142169 54.9587 0.137638 54.9498 0.132951 54.9409C0.126858 54.9294 0.121078 54.9177 0.115454 54.9058C0.110142 54.8948 0.104986 54.8837 0.0999868 54.8727C0.0952999 54.8622 0.0907693 54.8516 0.0863948 54.8409C0.0823329 54.8311 0.0785834 54.8213 0.0748339 54.8113C0.0699908 54.7983 0.0656163 54.7853 0.0612419 54.7722C0.0571799 54.7603 0.053118 54.7486 0.0495247 54.7364C0.0471813 54.7286 0.0449941 54.7208 0.0428068 54.713C0.0384324 54.6975 0.0349954 54.6817 0.0314021 54.666C0.0284337 54.6533 0.0249967 54.6408 0.022497 54.628C0.0214034 54.6225 0.020466 54.6169 0.0193724 54.6114C0.0157792 54.5916 0.0132795 54.5713 0.0107798 54.551C0.00921753 54.5391 0.00703032 54.5275 0.00578049 54.5155C0.00546803 54.5125 0.0053118 54.5097 0.00499934 54.5069C0.00187475 54.4718 0 54.4362 0 54.4001V13.5272C0 12.8799 0.524618 12.3555 1.17172 12.3555H82.8283C83.4754 12.3555 84 12.8799 84 13.5272ZM70.6693 53.2283C71.2242 47.4258 75.854 42.796 81.6566 42.241V25.686C75.854 25.1311 71.2242 20.5013 70.6693 14.6988H13.3307C12.7758 20.5014 8.14596 25.1313 2.34344 25.686V42.241C8.14596 42.796 12.7758 47.4258 13.3307 53.2283H70.6693ZM10.9728 53.2283C10.4369 48.7196 6.85222 45.1349 2.34344 44.599V53.2283H10.9728ZM10.9728 14.6989H2.34344V23.3282C6.85222 22.7922 10.4369 19.2077 10.9728 14.6989ZM81.6566 14.6989H73.0272C73.5631 19.2077 77.1478 22.7924 81.6566 23.3282V14.6989ZM74.6126 62.8694L21.6242 57.6081L74.6128 69.025V62.8694H74.6126ZM79.3086 55.5718H24.8316L79.3086 60.9807V55.5718ZM81.6566 53.2283V44.599C77.1478 45.1349 73.5631 48.7196 73.0272 53.2283H80.4773C80.4783 53.2283 80.4794 53.2282 80.4803 53.2282C80.4812 53.2282 80.4823 53.2283 80.4833 53.2283H81.6566ZM54.2427 24.7646C53.7132 25.1369 53.5859 25.8677 53.958 26.397C55.5205 28.6197 56.3465 31.2361 56.3465 33.9635C56.3465 41.2268 50.4372 47.136 43.174 47.136C35.9106 47.136 30.0013 41.2268 30.0013 33.9635C30.0013 26.7003 35.9106 20.7911 43.174 20.7911C45.9016 20.7911 48.5183 21.6171 50.741 23.1798C51.2704 23.5524 52.0013 23.4249 52.3734 22.8953C52.7455 22.366 52.6182 21.6352 52.0889 21.2629C49.4694 19.4213 46.3867 18.4476 43.174 18.4476C34.6184 18.4476 27.6579 25.4081 27.6579 33.9635C27.6579 42.519 34.6184 49.4795 43.174 49.4795C51.7296 49.4795 58.6899 42.519 58.6899 33.9635C58.6899 30.751 57.7166 27.6686 55.875 25.0493C55.5031 24.52 54.7721 24.3928 54.2427 24.7646Z" fill="#F7AE95"/>
</svg>
