<svg width="54" height="54" viewBox="0 0 54 54" fill="none" xmlns="http://www.w3.org/2000/svg">
<path d="M51.6371 0.222626H2.3668C1.1819 0.222626 0.224609 1.17992 0.224609 2.36481V51.6351C0.224609 52.82 1.1819 53.7773 2.3668 53.7773H51.6371C52.822 53.7773 53.7793 52.82 53.7793 51.6351V2.36481C53.7793 1.17992 52.822 0.222626 51.6371 0.222626ZM45.4516 15.8539H41.1739C37.82 15.8539 37.1707 17.4472 37.1707 19.7902V24.9515H45.1771L44.1328 33.0316H37.1707V53.7773H28.8228V33.0383H21.8406V24.9515H28.8228V18.9936C28.8228 12.0783 33.047 8.30939 39.2191 8.30939C42.178 8.30939 44.7152 8.5303 45.4583 8.63072V15.8539H45.4516Z" fill="#2091F9"/>
</svg>
