<svg width="68" height="68" viewBox="0 0 68 68" fill="none" xmlns="http://www.w3.org/2000/svg">
<g clip-path="url(#clip0)">
<path d="M26.3221 50.7099C22.5123 50.7099 19.3136 50.2791 18.5955 50.1749C17.9789 50.0848 17.4946 49.6005 17.4045 48.9838C17.1679 47.3535 15.2447 32.9112 20.5159 27.6372C23.5739 24.5793 28.5466 24.5793 31.6045 27.6372C33.2321 29.2619 34.0318 31.478 33.8882 33.6912C36.0788 33.5673 38.3174 34.3473 39.9421 35.9748C42.9973 39.03 42.9973 44.0055 39.9421 47.0634C36.9912 50.0144 31.1653 50.7099 26.3221 50.7099ZM20.0569 47.5224C24.7312 48.0518 34.6062 48.415 37.9514 45.0698C39.9112 43.1101 39.9112 39.9226 37.9514 37.9656C36.535 36.5492 34.4232 36.1128 32.5647 36.8393C32.0438 37.0476 31.4497 36.9237 31.0526 36.5267C30.6556 36.1297 30.5317 35.5355 30.7401 35.0146C31.4722 33.159 31.0301 31.0443 29.6138 29.628C27.6568 27.671 24.4665 27.671 22.5095 29.628C19.1615 32.9732 19.5219 42.8454 20.0569 47.5224Z" fill="#BDCAD8"/>
<path d="M26.7501 67.5793C24.8692 67.5793 23.1008 66.8472 21.7718 65.5181L2.06117 45.8075C0.732109 44.4784 0 42.7101 0 40.8291C0 39.0214 0.68424 37.3038 1.92601 35.9916L33.677 3.07204C35.5214 1.12351 38.1316 0 40.8291 0H60.5398C64.4199 0 67.5793 3.15933 67.5793 7.03951V26.7501C67.5793 29.4448 66.4586 32.0523 64.5016 33.9051L31.5989 65.6448C30.2755 66.895 28.5579 67.5793 26.7501 67.5793ZM40.8291 2.8158C38.875 2.8158 37.0588 3.5986 35.7156 5.01776L3.96183 37.9373C3.22691 38.7145 2.8158 39.7451 2.8158 40.8291C2.8158 41.9583 3.25507 43.017 4.05194 43.8139L23.7626 63.5245C25.3281 65.0901 28.0454 65.1267 29.6504 63.6062L62.5502 31.8721C62.5531 31.8693 62.5559 31.8664 62.5587 31.8636C63.9807 30.5205 64.7635 28.7043 64.7635 26.7501V7.03951C64.7635 4.71084 62.8684 2.8158 60.5398 2.8158H40.8291Z" fill="#BDCAD8"/>
<path d="M53.4998 19.7124C50.3939 19.7124 47.8682 17.1867 47.8682 14.0808C47.8682 10.975 50.3939 8.44922 53.4998 8.44922C56.6056 8.44922 59.1314 10.975 59.1314 14.0808C59.1314 17.1867 56.6056 19.7124 53.4998 19.7124ZM53.4998 11.265C51.9483 11.265 50.684 12.5293 50.684 14.0808C50.684 15.6323 51.9483 16.8966 53.4998 16.8966C55.0513 16.8966 56.3156 15.6323 56.3156 14.0808C56.3156 12.5293 55.0513 11.265 53.4998 11.265Z" fill="#BDCAD8"/>
</g>
<defs>
<clipPath id="clip0">
<rect width="67.5793" height="67.5793" fill="white"/>
</clipPath>
</defs>
</svg>
