<svg width="19" height="11" viewBox="0 0 19 11" fill="none" xmlns="http://www.w3.org/2000/svg">
<path d="M18.1927 9.41346H16.4319C16.1218 10.3345 15.2506 11 14.2263 11C13.202 11 12.3308 10.3345 12.0207 9.41346H0.740613C0.331597 9.41346 0 9.08186 0 8.67285C0 8.26383 0.331597 7.93223 0.740613 7.93223H12.0207C12.3308 7.01116 13.2021 6.34569 14.2263 6.34569C15.2506 6.34569 16.1219 7.01116 16.432 7.93223H18.1928C18.6018 7.93223 18.9334 8.26383 18.9334 8.67285C18.9334 9.08186 18.6018 9.41346 18.1927 9.41346ZM14.2263 7.82692C13.7599 7.82692 13.3804 8.20641 13.3804 8.67285C13.3804 9.13928 13.7599 9.51877 14.2263 9.51877C14.6928 9.51877 15.0723 9.13928 15.0723 8.67285C15.0723 8.20641 14.6928 7.82692 14.2263 7.82692Z" fill="#3D4853"/>
<path d="M18.1927 3.06971H10.0858C9.77565 3.99078 8.90444 4.65625 7.88012 4.65625C6.85581 4.65625 5.9846 3.99078 5.67448 3.06971H0.740613C0.331597 3.06971 0 2.73811 0 2.3291C0 1.92008 0.331597 1.58848 0.740613 1.58848H5.67448C5.9846 0.667407 6.85581 0.00194216 7.88012 0.00194216C8.90444 0.00194216 9.77565 0.667407 10.0858 1.58848H18.1928C18.6018 1.58848 18.9334 1.92008 18.9334 2.3291C18.9334 2.73811 18.6018 3.06971 18.1927 3.06971ZM7.88012 1.48312C7.41368 1.48312 7.03419 1.86261 7.03419 2.32905C7.03419 2.79548 7.41368 3.17497 7.88012 3.17497C8.34656 3.17497 8.72605 2.79553 8.72605 2.3291C8.72605 1.86266 8.34656 1.48312 7.88012 1.48312Z" fill="#3D4853"/>
</svg>
