<svg width="22" height="21" viewBox="0 0 22 21" fill="none" xmlns="http://www.w3.org/2000/svg">
<g clip-path="url(#clip0)">
<path d="M16.347 10.4769H6.20091C4.82399 10.4769 3.70776 11.5827 3.70776 12.9468V16.792C3.70776 18.1561 4.82399 19.2619 6.20091 19.2619H16.347C17.724 19.2619 18.8402 18.1561 18.8402 16.792V12.9468C18.8402 11.5827 17.724 10.4769 16.347 10.4769Z" stroke="#3D4853" stroke-width="2" stroke-linecap="round" stroke-linejoin="round"/>
<path d="M18.5937 5.53701H3.40648C2.02955 5.53701 0.91333 6.64284 0.91333 8.00695C0.91333 9.37106 2.02955 10.4769 3.40648 10.4769H18.5937C19.9706 10.4769 21.0868 9.37106 21.0868 8.00695C21.0868 6.64284 19.9706 5.53701 18.5937 5.53701Z" stroke="#3D4853" stroke-width="2" stroke-linecap="round" stroke-linejoin="round"/>
<path d="M10.9954 5.53701V19.2619" stroke="#3D4853" stroke-width="2" stroke-linecap="round" stroke-linejoin="round"/>
<path d="M4.51155 5.50084C4.14064 5.10787 3.8904 4.61834 3.79012 4.08959C3.68985 3.56083 3.74368 3.01472 3.94533 2.51518C4.62113 1.01331 6.68505 0.470471 8.612 1.30283L8.84031 1.4114C10.5481 2.2709 11.0047 3.96277 11.0047 5.54607" stroke="#3D4853" stroke-width="2" stroke-linecap="round" stroke-linejoin="round"/>
<path d="M17.4885 5.50084C17.8594 5.10787 18.1097 4.61834 18.2099 4.08959C18.3102 3.56083 18.2564 3.01472 18.0547 2.51518C17.3789 1.01331 15.315 0.470471 13.3881 1.30283L13.1598 1.4114C11.452 2.2709 10.9954 3.96277 10.9954 5.54607" stroke="#3D4853" stroke-width="2" stroke-linecap="round" stroke-linejoin="round"/>
</g>
<defs>
<clipPath id="clip0">
<rect width="22" height="20.1667" fill="white"/>
</clipPath>
</defs>
</svg>
