<svg id="Layer_1" data-name="Layer 1" xmlns="http://www.w3.org/2000/svg" width="24.09" height="22.29" viewBox="0 0 24.09 22.29"><defs><style>.feature-4-1{fill:none;stroke:black;stroke-linecap:round;stroke-linejoin:round;stroke-width:2px;}</style></defs><title>feature-4</title><rect class="feature-4-1" x="4.06" y="11.58" width="16.57" height="9.71" rx="2.73" ry="2.73"></rect><rect class="feature-4-1" x="1" y="6.12" width="22.09" height="5.46" rx="2.73" ry="2.73"></rect><line class="feature-4-1" x1="12.04" y1="6.12" x2="12.04" y2="21.29"></line><path class="feature-4-1" d="M-217.09,289.29a3.13,3.13,0,0,1-.62-3.3c0.74-1.66,3-2.26,5.11-1.34l0.25,0.12c1.87,0.95,2.37,2.82,2.37,4.57" transform="translate(222.03 -283.21)"></path><path class="feature-4-1" d="M-202.88,289.29a3.13,3.13,0,0,0,.62-3.3c-0.74-1.66-3-2.26-5.11-1.34l-0.25.12c-1.87.95-2.37,2.82-2.37,4.57" transform="translate(222.03 -283.21)"></path></svg>