<svg width="18" height="18" viewBox="0 0 18 18" fill="none" xmlns="http://www.w3.org/2000/svg">
<path d="M14.609 9.12656L12.9004 8.50426C12.8476 8.4832 12.7844 8.47266 12.7211 8.47266H1.77344C1.47809 8.47266 1.24609 8.70465 1.24609 9V16.418C1.24609 17.2933 1.9527 18 2.82813 18H13.375C14.2504 18 14.9571 17.2933 14.9571 16.418V9.62223C14.9571 9.40078 14.8199 9.20039 14.609 9.12656Z" fill="#FC1A40"/>
<path d="M14.957 9.62223V16.418C14.957 17.2933 14.2504 18 13.375 18H8.10156V8.47266H12.7211C12.7844 8.47266 12.8477 8.4832 12.9004 8.50426L14.609 9.12656C14.8199 9.20039 14.957 9.40078 14.957 9.62223Z" fill="#C60034"/>
<path d="M14.7672 3.43786C14.5879 2.71012 14.05 2.14063 13.3222 1.90856C12.6051 1.68704 11.8351 1.84528 11.2761 2.35149L10.0527 3.42731L9.81013 1.81367C9.69412 1.07539 9.21951 0.453088 8.5129 0.15781C8.37579 0.105041 8.23868 0.062853 8.10157 0.0417592C7.52149 -0.0742566 6.92032 0.0523061 6.43513 0.410936C5.79177 0.874999 5.46485 1.65547 5.57028 2.4359C5.68633 3.21637 6.21368 3.88083 6.96247 4.1445L8.10157 4.55583L9.50431 5.07263C9.51485 5.07263 9.51485 5.07263 9.51485 5.07263L11.9512 5.96908C12.1937 6.05349 12.4469 6.09571 12.6894 6.09571C13.2063 6.09571 13.7125 5.9058 14.1133 5.54724C14.7039 5.01989 14.957 4.20775 14.7672 3.43786Z" fill="#FE9923"/>
<path d="M14.1133 5.54702C13.7125 5.90558 13.2063 6.09549 12.6894 6.09549C12.4469 6.09549 12.1938 6.05327 11.9512 5.96886L9.51484 5.07241C9.51484 5.07241 9.51484 5.07241 9.5043 5.07241L8.10156 4.55561V0.0415039C8.23867 0.0626329 8.37578 0.104785 8.51289 0.157555C9.2195 0.452833 9.69414 1.07513 9.81012 1.81342L10.0527 3.42706L11.2761 2.35124C11.8351 1.84502 12.605 1.68678 13.3222 1.9083C14.05 2.14037 14.5879 2.70987 14.7672 3.4376C14.957 4.20753 14.7039 5.01967 14.1133 5.54702Z" fill="#FE8821"/>
<path d="M16.7599 8.22998L16.0427 10.2128C15.9583 10.4237 15.7579 10.5503 15.547 10.5503C15.4837 10.5503 15.4204 10.5398 15.3677 10.5187L9.91492 8.53588L9.41925 6.90111L8.10089 7.19639L6.94077 7.46006L1.48799 5.47725C1.21377 5.37182 1.07669 5.06592 1.17158 4.80225L1.89932 2.8195C2.03642 2.41872 2.33177 2.10225 2.71146 1.92299C3.09115 1.74372 3.52354 1.72259 3.92432 1.87025L8.10092 3.389L8.38573 3.49444C8.38573 3.49444 9.52476 5.56166 9.55643 5.56166C9.57756 5.56166 10.031 5.30853 10.474 5.06592C10.9169 4.82334 11.3599 4.57025 11.3599 4.57025L15.8106 6.19444C16.2114 6.34209 16.5278 6.63744 16.7071 7.01713C16.8865 7.39678 16.9075 7.82924 16.7599 8.22998Z" fill="#FF3E75"/>
<path d="M16.7606 8.23014L16.0434 10.213C15.959 10.4239 15.7586 10.5505 15.5476 10.5505C15.4844 10.5505 15.4211 10.5399 15.3684 10.5188L9.9156 8.53604L9.41993 6.90127L8.10156 7.19655V3.38916L8.38636 3.49459C8.38636 3.49459 9.5254 5.56182 9.55707 5.56182C9.5782 5.56182 10.0317 5.30869 10.4747 5.06608C10.9176 4.8235 11.3606 4.57041 11.3606 4.57041L15.8113 6.19459C16.2121 6.34225 16.5285 6.6376 16.7078 7.01729C16.8871 7.39694 16.9082 7.8294 16.7606 8.23014Z" fill="#FC1A40"/>
<path d="M6.51953 8.47266V18H9.6836V8.47266H6.51953Z" fill="#FCBF29"/>
<path d="M8.38633 3.49463L8.10153 4.2751L6.94141 7.4603L8.10153 7.88221L9.41989 8.35682L9.91556 8.53608L11.3606 4.57045L8.38633 3.49463Z" fill="#FCBF29"/>
<path d="M9.6836 8.47266H8.10156V18H9.6836V8.47266Z" fill="#FE9923"/>
<path d="M11.3606 4.57045L9.91559 8.53608L9.41992 8.35678L8.10156 7.88217V4.2751L8.38633 3.49463L11.3606 4.57045Z" fill="#FE9923"/>
</svg>
