<svg class="svg-NavCard" viewBox="0 0 23.67 16.97"><title>Icon money</title><path class="svg-Money" d="M1 2.36v12.61M22.67 2.36v12.61"></path><path class="svg-Money" d="M-293.2 287.63s3.41-2.25 9.63-.89 6.73 2.18 12 .92M-293.2 300.61s3.41-2.25 9.63-.89 6.73 2.18 12 .92M-282.28 293.55a2 2 0 0 1-2.24-1.73 2 2 0 0 1 2.24-1.73 2.34 2.34 0 0 1 2 1" transform="translate(294.2 -285.31)"></path><path class="svg-Money" d="M-282.47 293.55a2 2 0 0 1 2.24 1.73 2 2 0 0 1-2.24 1.73 2.34 2.34 0 0 1-2-1" transform="translate(294.2 -285.31)"></path><path class="svg-Money" d="M11.96 1.99l-.03 2.8M11.96 11.7l-.03 2.79"></path></svg>