<?xml version="1.0" encoding="UTF-8"?>
<svg width="64px" height="64px" viewBox="0 0 64 64" version="1.1" xmlns="http://www.w3.org/2000/svg" xmlns:xlink="http://www.w3.org/1999/xlink">
    <!-- Generator: Sketch 55.2 (78181) - https://sketchapp.com -->
    <title>Group 12 Copy 5</title>
    <desc>Created with Sketch.</desc>
    <g id="Mega-Menu-&amp;-Political" stroke="none" stroke-width="1" fill="none" fill-rule="evenodd">
        <g id="Group-12-Copy-5">
            <circle id="Oval-Copy-4" fill="#F1F4F8" fill-rule="nonzero" cx="32" cy="32" r="32"></circle>
            <g id="Group-4-Copy-2" transform="translate(17.000000, 9.000000)">
                <path d="M2.56247763,40.9501733 L5.21401352,40.9501733 L5.21401352,29.5426025 L2.56247763,29.5426025 L2.56247763,40.9501733 Z M5.19759143,28.4927758 L24.8030402,28.4927758 L24.8030402,18.629698 L5.19759143,18.629698 L5.19759143,28.4927758 Z M15.0003158,6.84025746 C20.9520601,6.84025746 25.7991031,11.6508079 25.8414216,17.5792411 L4.15921006,17.5792411 C4.2008969,11.6508079 9.04857149,6.84025746 15.0003158,6.84025746 L15.0003158,6.84025746 Z M15.5264543,3.9302336 L20.9861675,3.9302336 L20.9861675,1.50920466 L15.5264543,1.50920466 L15.5264543,3.9302336 Z M24.7866181,40.9501733 L27.438154,40.9501733 L27.438154,29.5426025 L24.7866181,29.5426025 L24.7866181,40.9501733 Z M9.97073499,40.9501733 L12.6222709,40.9501733 L12.6222709,29.5426025 L9.97073499,29.5426025 L9.97073499,40.9501733 Z M13.6745479,40.9501733 L16.3260838,40.9501733 L16.3260838,29.5426025 L13.6745479,29.5426025 L13.6745479,40.9501733 Z M17.3783607,40.9501733 L20.0298966,40.9501733 L20.0298966,29.5426025 L17.3783607,29.5426025 L17.3783607,40.9501733 Z M21.0821736,40.9501733 L23.7337095,40.9501733 L23.7337095,29.5426025 L21.0821736,29.5426025 L21.0821736,40.9501733 Z M6.2662905,40.9501733 L8.91782639,40.9501733 L8.91782639,29.5426025 L6.2662905,29.5426025 L6.2662905,40.9501733 Z M0.526138493,40.9501733 C0.235593827,40.9501733 0,41.1845884 0,41.4750866 C0,41.7655849 0.235593827,42 0.526138493,42 L29.4738615,42 C29.7644062,42 30,41.7655849 30,41.4750866 C30,41.1845884 29.7644062,40.9501733 29.4738615,40.9501733 L28.490431,40.9501733 L28.490431,29.5426025 L29.4738615,29.5426025 C29.7644062,29.5426025 30,29.3081874 30,29.0176892 C30,28.7271909 29.7644062,28.4927758 29.4738615,28.4927758 L25.8559488,28.4927758 L25.8559488,18.629698 L26.3681917,18.629698 C26.6587363,18.629698 26.8943302,18.3946527 26.8943302,18.1047846 L26.8943302,17.6567493 C26.8943302,11.2897331 21.8413795,6.07903857 15.5270859,5.80366386 L15.5270859,4.98006031 L21.5129377,4.98006031 C21.8034823,4.98006031 22.0390762,4.74501508 22.0390762,4.45514696 L22.0390762,0.984291308 C22.0390762,0.693793041 21.8034823,0.459377954 21.5129377,0.459377954 L15.5138219,0.459377954 C15.4803461,0.201647387 15.2681222,0 15.0009474,0 C14.7104028,0 14.4741773,0.234415088 14.4741773,0.524913355 L14.4741773,5.80429401 C8.15988378,6.08029887 3.10693307,11.2903632 3.10693307,17.6573795 L3.10693307,18.1047846 C3.10693307,18.3952829 3.3425269,18.6303281 3.63307156,18.6303281 L4.14531444,18.6303281 L4.14531444,28.493406 L0.527401731,28.493406 C0.236857065,28.493406 0.00126323768,28.727821 0.00126323768,29.0183193 C0.00126323768,29.3088176 0.236857065,29.5432327 0.527401731,29.5432327 L1.51083226,29.5432327 L1.51083226,40.9508034 L0.526138493,40.9508034 L0.526138493,40.9501733 Z" id="Fill-1" fill="#000000"></path>
                <path d="M2.56247763,40.9501733 L5.21401352,40.9501733 L5.21401352,29.5426025 L2.56247763,29.5426025 L2.56247763,40.9501733 Z M5.19759143,28.4927758 L24.8030402,28.4927758 L24.8030402,18.629698 L5.19759143,18.629698 L5.19759143,28.4927758 Z M15.0003158,6.84025746 C20.9520601,6.84025746 25.7991031,11.6508079 25.8414216,17.5792411 L4.15921006,17.5792411 C4.2008969,11.6508079 9.04857149,6.84025746 15.0003158,6.84025746 Z M15.5264543,3.9302336 L20.9861675,3.9302336 L20.9861675,1.50920466 L15.5264543,1.50920466 L15.5264543,3.9302336 Z M24.7866181,40.9501733 L27.438154,40.9501733 L27.438154,29.5426025 L24.7866181,29.5426025 L24.7866181,40.9501733 Z M9.97073499,40.9501733 L12.6222709,40.9501733 L12.6222709,29.5426025 L9.97073499,29.5426025 L9.97073499,40.9501733 Z M13.6745479,40.9501733 L16.3260838,40.9501733 L16.3260838,29.5426025 L13.6745479,29.5426025 L13.6745479,40.9501733 Z M17.3783607,40.9501733 L20.0298966,40.9501733 L20.0298966,29.5426025 L17.3783607,29.5426025 L17.3783607,40.9501733 Z M21.0821736,40.9501733 L23.7337095,40.9501733 L23.7337095,29.5426025 L21.0821736,29.5426025 L21.0821736,40.9501733 Z M6.2662905,40.9501733 L8.91782639,40.9501733 L8.91782639,29.5426025 L6.2662905,29.5426025 L6.2662905,40.9501733 Z M0.526138493,40.9501733 C0.235593827,40.9501733 0,41.1845884 0,41.4750866 C0,41.7655849 0.235593827,42 0.526138493,42 L29.4738615,42 C29.7644062,42 30,41.7655849 30,41.4750866 C30,41.1845884 29.7644062,40.9501733 29.4738615,40.9501733 L28.490431,40.9501733 L28.490431,29.5426025 L29.4738615,29.5426025 C29.7644062,29.5426025 30,29.3081874 30,29.0176892 C30,28.7271909 29.7644062,28.4927758 29.4738615,28.4927758 L25.8559488,28.4927758 L25.8559488,18.629698 L26.3681917,18.629698 C26.6587363,18.629698 26.8943302,18.3946527 26.8943302,18.1047846 L26.8943302,17.6567493 C26.8943302,11.2897331 21.8413795,6.07903857 15.5270859,5.80366386 L15.5270859,4.98006031 L21.5129377,4.98006031 C21.8034823,4.98006031 22.0390762,4.74501508 22.0390762,4.45514696 L22.0390762,0.984291308 C22.0390762,0.693793041 21.8034823,0.459377954 21.5129377,0.459377954 L15.5138219,0.459377954 C15.4803461,0.201647387 15.2681222,0 15.0009474,0 C14.7104028,0 14.4741773,0.234415088 14.4741773,0.524913355 L14.4741773,5.80429401 C8.15988378,6.08029887 3.10693307,11.2903632 3.10693307,17.6573795 L3.10693307,18.1047846 C3.10693307,18.3952829 3.3425269,18.6303281 3.63307156,18.6303281 L4.14531444,18.6303281 L4.14531444,28.493406 L0.527401731,28.493406 C0.236857065,28.493406 0.00126323768,28.727821 0.00126323768,29.0183193 C0.00126323768,29.3088176 0.236857065,29.5432327 0.527401731,29.5432327 L1.51083226,29.5432327 L1.51083226,40.9508034 L0.526138493,40.9508034 L0.526138493,40.9501733 Z" id="Stroke-3" stroke="#000000" stroke-width="0.2" stroke-linecap="round" stroke-linejoin="round"></path>
            </g>
        </g>
    </g>
</svg>