<svg width="24" height="25" viewBox="0 0 24 25" fill="none" xmlns="http://www.w3.org/2000/svg">
<g clip-path="url(#clip0)">
<path d="M5.9111 9.08377C5.21095 9.08377 4.52653 8.82156 3.94438 8.33022C3.36223 7.83888 2.9085 7.14046 2.64056 6.32339C2.37263 5.50632 2.30252 4.60726 2.43912 3.73987C2.57571 2.87247 2.91286 2.07576 3.40794 1.45039C3.90302 0.825034 4.53378 0.399094 5.22047 0.226557C5.90717 0.0540202 6.61894 0.142534 7.26579 0.480978C7.91264 0.819421 8.46553 1.39258 8.85451 2.12793C9.24349 2.86327 9.45109 3.72791 9.45109 4.6123C9.44845 5.79721 9.07465 6.93264 8.41134 7.7705C7.74804 8.60837 6.84916 9.08043 5.9111 9.08377ZM5.9111 2.66699C5.60652 2.66699 5.30878 2.78105 5.05552 2.99481C4.80227 3.20856 4.60488 3.5124 4.48833 3.86785C4.37177 4.2233 4.34127 4.61443 4.40069 4.99177C4.46012 5.36911 4.60678 5.71566 4.82216 5.98771C5.03753 6.25977 5.31192 6.44508 5.61065 6.52014C5.90939 6.5952 6.21903 6.55666 6.50043 6.40942C6.78182 6.2622 7.02234 6.01294 7.19156 5.69305C7.36077 5.37314 7.45109 4.99704 7.45109 4.6123C7.45109 4.09638 7.28885 3.60154 7.00004 3.23674C6.71124 2.87193 6.31953 2.66699 5.9111 2.66699Z" fill="#3D4853"/>
<path d="M23.8397 22.2458C23.915 22.0146 23.9344 21.7604 23.8952 21.5152C23.856 21.2702 23.7602 21.0452 23.6197 20.869L15.9097 11.13C15.7224 10.8947 15.4689 10.7627 15.2047 10.7627C14.9405 10.7627 14.6871 10.8947 14.4997 11.13L10.9797 15.5764L8.43972 12.368C8.25236 12.1327 7.9989 12.0006 7.73472 12.0006C7.47053 12.0006 7.21708 12.1327 7.02972 12.368L0.29972 20.869C0.158691 21.0457 0.0625144 21.2714 0.0234448 21.5174C-0.0156249 21.7634 0.00417802 22.0186 0.0803448 22.2503C0.156512 22.482 0.285583 22.6799 0.451103 22.8186C0.616623 22.9572 0.811087 23.0305 1.00971 23.029H22.9297C23.1254 23.0253 23.316 22.949 23.4777 22.8098C23.6395 22.6706 23.7654 22.4746 23.8397 22.2458ZM7.72971 15.0458L10.2697 18.2543C10.4571 18.4895 10.7105 18.6215 10.9747 18.6215C11.2389 18.6215 11.4924 18.4895 11.6797 18.2543L15.1997 13.8078L20.4897 20.49H3.41972L7.72971 15.0458Z" fill="#3D4853"/>
</g>
<defs>
<clipPath id="clip0">
<rect width="24" height="24" fill="white" transform="translate(0 0.140625)"/>
</clipPath>
</defs>
</svg>
