<svg width="25" height="25" viewBox="0 0 25 25" fill="none" xmlns="http://www.w3.org/2000/svg">
<g clip-path="url(#clip0)">
<path d="M12.7032 2.97249C15.9192 2.97249 16.2792 2.97249 17.5032 2.97249C18.265 2.97958 19.02 3.11762 19.7351 3.38052C20.2512 3.57168 20.7185 3.87496 21.1032 4.26851C21.4967 4.65321 21.8 5.12045 21.9911 5.63652C22.254 6.35165 22.3921 7.10662 22.3992 7.86851C22.3992 9.1405 22.3992 9.52451 22.3992 12.6685C22.3992 15.8125 22.3992 16.2445 22.3992 17.4685C22.3921 18.2304 22.254 18.9854 21.9911 19.7005C21.8 20.2166 21.4967 20.6838 21.1032 21.0685C20.7185 21.4621 20.2512 21.7653 19.7351 21.9565C19.02 22.2194 18.265 22.3574 17.5032 22.3645C16.2312 22.3645 15.8472 22.3645 12.7032 22.3645C9.55915 22.3645 9.12715 22.3645 7.90315 22.3645C7.14127 22.3574 6.38629 22.2194 5.67117 21.9565C5.1551 21.7653 4.68785 21.4621 4.30315 21.0685C3.9096 20.6838 3.60633 20.2166 3.41516 19.7005C3.15226 18.9854 3.01422 18.2304 3.00713 17.4685C3.00713 16.1965 3.00713 15.8125 3.00713 12.6685C3.00713 9.52451 3.00713 9.09251 3.00713 7.86851C3.01422 7.10662 3.15226 6.35165 3.41516 5.63652C3.60633 5.12045 3.9096 4.65321 4.30315 4.26851C4.68785 3.87496 5.1551 3.57168 5.67117 3.38052C6.38629 3.11762 7.14127 2.97958 7.90315 2.97249C9.17515 2.97249 9.55915 2.97249 12.7032 2.97249ZM12.7032 0.8125C9.43915 0.8125 9.03116 0.8125 7.75916 0.8125C6.76697 0.831594 5.78517 1.01825 4.85518 1.36453C4.04994 1.66672 3.32077 2.14186 2.71914 2.75649C2.10451 3.35812 1.62937 4.08729 1.32717 4.89253C0.980895 5.82252 0.794241 6.80432 0.775146 7.79651C0.775146 9.06851 0.775146 9.4765 0.775146 12.7405C0.775146 16.0045 0.775146 16.4125 0.775146 17.6845C0.794241 18.6767 0.980895 19.6586 1.32717 20.5885C1.62937 21.3938 2.10451 22.1229 2.71914 22.7245C3.32077 23.3391 4.04994 23.8144 4.85518 24.1166C5.78517 24.4628 6.76697 24.6494 7.75916 24.6685C9.03116 24.6685 9.43915 24.6685 12.7032 24.6685C15.9672 24.6685 16.3751 24.6685 17.6471 24.6685C18.6393 24.6494 19.6212 24.4628 20.5512 24.1166C21.3564 23.8144 22.0855 23.3391 22.6872 22.7245C23.3018 22.1229 23.777 21.3938 24.0792 20.5885C24.4255 19.6586 24.6121 18.6767 24.6312 17.6845C24.6312 16.4125 24.6312 16.0045 24.6312 12.7405C24.6312 9.4765 24.6312 9.06851 24.6312 7.79651C24.6121 6.80432 24.4255 5.82252 24.0792 4.89253C23.777 4.08729 23.3018 3.35812 22.6872 2.75649C22.0855 2.14186 21.3564 1.66672 20.5512 1.36453C19.6212 1.01825 18.6393 0.831594 17.6471 0.8125C16.3751 0.8125 15.9672 0.8125 12.7032 0.8125Z" fill="white"/>
<path d="M12.7032 6.66846C11.0673 6.66846 9.49847 7.31832 8.34175 8.47505C7.18502 9.63177 6.53516 11.2006 6.53516 12.8365C6.53516 14.4723 7.18502 16.0412 8.34175 17.1979C9.49847 18.3546 11.0673 19.0045 12.7032 19.0045C14.339 19.0045 15.9079 18.3546 17.0646 17.1979C18.2213 16.0412 18.8712 14.4723 18.8712 12.8365C18.8712 11.2006 18.2213 9.63177 17.0646 8.47505C15.9079 7.31832 14.339 6.66846 12.7032 6.66846ZM12.7032 16.8205C11.6402 16.8205 10.6208 16.3982 9.86914 15.6466C9.11749 14.8949 8.69521 13.8754 8.69521 12.8125C8.69521 11.7495 9.11749 10.7301 9.86914 9.97842C10.6208 9.22677 11.6402 8.80449 12.7032 8.80449C13.7662 8.80449 14.7856 9.22677 15.5373 9.97842C16.2889 10.7301 16.7112 11.7495 16.7112 12.8125C16.7112 13.8754 16.2889 14.8949 15.5373 15.6466C14.7856 16.3982 13.7662 16.8205 12.7032 16.8205Z" fill="white"/>
<path d="M19.1111 7.84436C19.9064 7.84436 20.5511 7.19965 20.5511 6.40436C20.5511 5.60907 19.9064 4.96436 19.1111 4.96436C18.3159 4.96436 17.6711 5.60907 17.6711 6.40436C17.6711 7.19965 18.3159 7.84436 19.1111 7.84436Z" fill="white"/>
</g>
<defs>
<clipPath id="clip0">
<rect width="24" height="24" fill="white" transform="translate(0.703125 0.8125)"/>
</clipPath>
</defs>
</svg>
