<svg width="55" height="54" viewBox="0 0 55 54" fill="none" xmlns="http://www.w3.org/2000/svg">
<path d="M52.3285 0.222626H3.0582C1.87331 0.222626 0.916016 1.17992 0.916016 2.36481V51.6351C0.916016 52.82 1.87331 53.7773 3.0582 53.7773H52.3285C53.5134 53.7773 54.4707 52.82 54.4707 51.6351V2.36481C54.4707 1.17992 53.5134 0.222626 52.3285 0.222626ZM16.8017 45.8579H8.8555V20.2989H16.8017V45.8579ZM12.8319 16.8045C11.921 16.8045 11.0306 16.5344 10.2731 16.0283C9.51574 15.5222 8.92542 14.8029 8.57682 13.9613C8.22823 13.1197 8.13702 12.1937 8.31473 11.3003C8.49244 10.4068 8.93109 9.58619 9.57521 8.94207C10.2193 8.29795 11.04 7.8593 11.9334 7.68159C12.8268 7.50388 13.7529 7.59509 14.5945 7.94368C15.436 8.29228 16.1554 8.8826 16.6614 9.64001C17.1675 10.3974 17.4376 11.2879 17.4376 12.1988C17.4309 14.7426 15.3691 16.8045 12.8319 16.8045ZM46.5513 45.8579H38.6118V33.4265C38.6118 30.461 38.5583 26.6519 34.4814 26.6519C30.351 26.6519 29.7151 29.8785 29.7151 33.2123V45.8579H21.7823V20.2989H29.4004V23.7934H29.5075C30.5652 21.7851 33.156 19.663 37.0253 19.663C45.0719 19.663 46.5513 24.9582 46.5513 31.84V45.8579Z" fill="#2091F9"/>
</svg>
