<svg width="9" height="9" viewBox="0 0 9 9" fill="none" xmlns="http://www.w3.org/2000/svg">
<g clip-path="url(#clip0)">
<path d="M3.73104 6.85995L2.67053 7.92046C2.23086 8.36013 1.51886 8.36013 1.07956 7.92055C0.640173 7.48116 0.640173 6.76908 1.07947 6.32979L3.20086 4.20839C3.64016 3.76908 4.35224 3.76908 4.79153 4.20839C4.93798 4.35484 5.17543 4.35484 5.32187 4.20839C5.46831 4.06195 5.46831 3.8245 5.32187 3.67806C4.58967 2.94586 3.40273 2.94586 2.67053 3.67806L0.549153 5.79943C-0.183051 6.53164 -0.183051 7.71857 0.549153 8.45078C1.28127 9.18337 2.46829 9.18337 3.20088 8.45078L4.26139 7.39026C4.40784 7.24382 4.40784 7.00637 4.26139 6.85993C4.11495 6.71349 3.87748 6.7135 3.73104 6.85995Z" fill="#BDCAD8"/>
<path d="M8.45088 0.549153C7.71868 -0.183051 6.53136 -0.183051 5.79916 0.549153L4.52677 1.82153C4.38033 1.96798 4.38033 2.20543 4.52677 2.35187C4.67322 2.49831 4.91066 2.49831 5.05711 2.35187L6.32949 1.07949C6.76879 0.640173 7.48123 0.640173 7.92055 1.07949C8.35985 1.51878 8.35985 2.23086 7.92055 2.67016L5.58729 5.00344C5.14797 5.44275 4.43591 5.44275 3.99661 5.00344C3.85017 4.857 3.61272 4.857 3.46628 5.00344C3.31983 5.14988 3.31983 5.38733 3.46628 5.53377C4.19848 6.26598 5.38542 6.26598 6.11762 5.53377L8.45088 3.20051C9.18309 2.46831 9.18309 1.28136 8.45088 0.549153Z" fill="#BDCAD8"/>
</g>
<defs>
<clipPath id="clip0">
<rect width="9" height="9" fill="white"/>
</clipPath>
</defs>
</svg>
