<svg width="65" height="66" viewBox="0 0 65 66" fill="none" xmlns="http://www.w3.org/2000/svg">
<rect x="0.5" y="1.40771" width="64" height="64" rx="32" fill="white"/>
<g clip-path="url(#clip0)">
<path d="M32.4993 36.9025C35.9922 36.9025 38.8327 34.062 38.8327 30.5692C38.8327 27.0763 35.9922 24.2358 32.4993 24.2358C29.0065 24.2358 26.166 27.0763 26.166 30.5692C26.166 34.062 29.0065 36.9025 32.4993 36.9025ZM32.4993 27.4025C34.2458 27.4025 35.666 28.8228 35.666 30.5692C35.666 32.3156 34.2458 33.7358 32.4993 33.7358C30.7529 33.7358 29.3327 32.3156 29.3327 30.5692C29.3327 28.8228 30.7529 27.4025 32.4993 27.4025Z" fill="#2091F9"/>
<path d="M31.2485 49.2746C31.5164 49.466 31.8375 49.5689 32.1668 49.5689C32.4961 49.5689 32.8172 49.466 33.0851 49.2746C33.5665 48.9342 44.8794 40.7658 44.8335 30.5691C44.8335 23.585 39.1509 17.9025 32.1668 17.9025C25.1827 17.9025 19.5001 23.585 19.5001 30.5612C19.4542 40.7658 30.7671 48.9342 31.2485 49.2746ZM32.1668 21.0691C37.4061 21.0691 41.6668 25.3299 41.6668 30.577C41.7001 37.6039 34.7191 43.9135 32.1668 45.9829C29.6161 43.9119 22.6336 37.6007 22.6668 30.5691C22.6668 25.3299 26.9276 21.0691 32.1668 21.0691Z" fill="#2091F9"/>
</g>
<rect x="0.5" y="1.40771" width="64" height="64" rx="32" stroke="url(#paint0_linear)"/>
<defs>
<linearGradient id="paint0_linear" x1="1.12926" y1="65.9077" x2="47.3054" y2="10.817" gradientUnits="userSpaceOnUse">
<stop stop-color="#00F3B9"/>
<stop offset="1" stop-color="#2187FF"/>
</linearGradient>
<clipPath id="clip0">
<rect width="26" height="32" fill="white" transform="translate(19.5 17.7358)"/>
</clipPath>
</defs>
</svg>
