<svg width="27" height="32" viewBox="0 0 27 32" fill="none" xmlns="http://www.w3.org/2000/svg">
<path d="M26.0638 17.0018C26.0557 16.5088 26.0212 16.0167 25.9604 15.5275C25.8108 14.1032 25.4266 12.7139 24.8235 11.4164L24.5886 10.9628V10.8872H24.457H24.0436C22.895 10.9926 21.7628 11.2336 20.6703 11.6054L20.332 11.7283V11.4448C20.1169 10.0492 19.7449 8.68269 19.2232 7.37153C18.926 6.64187 18.5774 5.93442 18.1802 5.25458C17.3564 3.91347 16.3648 2.68429 15.2298 1.59717C14.6166 1.05648 13.9562 0.572538 13.2566 0.151214L13.0968 0.0472563L13.0217 0L12.9465 0.0472563L12.7961 0.151214C11.1626 1.28493 9.75933 2.72197 8.66174 4.38511C7.81032 5.62887 7.10407 6.96708 6.55695 8.3733C6.16075 9.37995 5.88324 10.4298 5.73008 11.5015C5.73008 11.6054 5.73008 11.6999 5.73008 11.8039C5.73008 11.9079 5.39181 11.6621 4.79044 11.492L4.57432 11.4353C3.56588 11.1704 2.53864 10.9839 1.50172 10.8777L1.14466 11.7566C1.0413 11.9929 0.937939 12.2292 0.843976 12.4749C0.170547 14.2841 -0.10514 16.2186 0.0358888 18.1453C0.113257 19.3164 0.327724 20.4742 0.674841 21.5948C1.59772 24.5963 3.38673 27.2542 5.81465 29.231C6.60881 29.9063 7.4869 30.475 8.42683 30.9226C9.89886 31.6115 11.5014 31.9726 13.125 31.9811H13.3505C15.1053 31.8646 16.8155 31.375 18.3682 30.5446C18.7252 30.3461 19.0823 30.1099 19.0917 30.1099C19.5731 29.7959 20.0345 29.4519 20.473 29.0797C21.7833 27.9781 22.9067 26.6694 23.7993 25.205C24.7086 23.7463 25.381 22.1511 25.7913 20.4796C26.0212 19.3356 26.1127 18.1679 26.0638 17.0018ZM13.078 25.668C13.0686 27.0703 12.8338 28.4617 12.3827 29.7885C9.71459 29.3086 7.2686 27.9842 5.40121 26.0083C4.20446 24.6498 3.29352 23.0617 2.72325 21.3396C2.20658 19.8565 1.97383 18.2885 2.03731 16.7183C2.10781 15.5383 2.34185 14.3741 2.73264 13.2593V13.2026H2.8548C3.68555 13.3517 4.5004 13.5795 5.28845 13.883L5.52336 13.9776C6.5388 14.458 7.48665 15.0713 8.34226 15.8015C9.68911 16.9179 10.7845 18.3096 11.5558 19.8842C11.7343 20.2623 11.8847 20.6592 11.9787 20.8955C12.3929 21.8199 12.7079 22.7862 12.9183 23.7779C13.0309 24.4014 13.0844 25.0343 13.078 25.668ZM13.0123 18.1075C12.532 17.2951 11.9817 16.5267 11.3679 15.811C11.0083 15.3808 10.6223 14.9736 10.2121 14.5919C9.81428 14.2018 9.39385 13.8357 8.95303 13.4956C8.55838 13.212 8.14494 12.9474 7.7315 12.7017C7.8027 12.0399 7.91569 11.3833 8.06977 10.736C8.47262 9.0097 9.16878 7.36635 10.1276 5.87832C10.7083 5.00282 11.3723 4.18622 12.1102 3.44005C12.4203 3.12817 12.7492 2.8163 13.0498 2.49498C14.5497 3.68376 15.7907 5.16992 16.6956 6.8612C17.2358 7.90584 17.6551 9.00932 17.9453 10.15C18.1591 10.9748 18.3068 11.8154 18.387 12.6639C17.2155 13.3433 16.1435 14.183 15.2016 15.1589C14.3563 16.0494 13.6212 17.0395 13.0123 18.1075ZM22.1079 23.8441C20.4312 26.6555 17.7371 28.7047 14.5908 29.5617C14.8284 28.7439 14.9888 27.9054 15.0701 27.0573C15.1492 26.1928 15.1492 25.3228 15.0701 24.4584C14.9448 23.0728 14.6285 21.7114 14.1304 20.4135C14.5557 19.4665 15.0886 18.5721 15.7184 17.7484C16.3348 16.9363 17.0444 16.2003 17.8326 15.5558C18.6534 14.8975 19.557 14.351 20.5199 13.9303C21.4011 13.5491 22.3259 13.2793 23.2731 13.127C23.4371 13.6458 23.575 14.1725 23.6865 14.7053C23.8838 15.9244 23.9778 16.8695 23.9872 16.964C24.0368 19.392 23.384 21.7823 22.1079 23.8441Z" fill="#F49879"/>
</svg>
