<svg width="165" height="32" viewBox="0 0 165 32" fill="none" xmlns="http://www.w3.org/2000/svg">
<g clip-path="url(#clip0)">
<path d="M155.491 23.9669V8.02362H165.009V9.97992H157.671V14.762H165.009V16.7183H157.671V22.0012H165.009V23.9575H155.491V23.9669Z" fill="#3D4853"/>
<path d="M144.817 23.9669L140.062 17.2002H138.427V23.9386H136.257V8.02362H140.955C143.379 8.02362 146.367 9.29947 146.367 12.5978C146.377 13.692 145.989 14.7521 145.276 15.5788C144.563 16.4054 143.574 16.9417 142.496 17.0868L147.523 23.9669H144.807H144.817ZM140.851 9.97992H138.427V15.3101H140.4C142.505 15.3101 144.065 14.5351 144.065 12.7112C144.065 11.0573 142.778 9.97992 140.851 9.97992Z" fill="#3D4853"/>
<path d="M124.361 23.9669V8.02362H126.531V23.9669H124.361Z" fill="#3D4853"/>
<path d="M109.919 17.2002V24.0142H107.748V8.02362H115.791V9.97992H109.928V15.1967H115.791V17.2002H109.928H109.919Z" fill="#3D4853"/>
<path d="M96.0682 23.9669L87.3766 12.078V23.9669H85.2061V8.02362H87.0853L95.8051 19.9126V8.02362H97.9757V23.9669H96.0964H96.0682Z" fill="#3D4853"/>
<path d="M68.5276 24.241C66.9055 24.2485 65.3176 23.7715 63.9653 22.8705C62.6129 21.9696 61.5569 20.6851 60.9309 19.18C60.305 17.6748 60.1374 16.0166 60.4493 14.4156C60.7612 12.8145 61.5386 11.3425 62.6829 10.1862C63.8273 9.02993 65.2872 8.24128 66.8776 7.92023C68.4681 7.59917 70.1175 7.76015 71.6168 8.38277C73.1162 9.00538 74.3981 10.0616 75.3001 11.4177C76.2021 12.7737 76.6836 14.3685 76.6836 16C76.6962 17.0825 76.494 18.1567 76.089 19.1597C75.6841 20.1628 75.0844 21.0746 74.325 21.8419C73.5656 22.6091 72.6618 23.2165 71.6664 23.6284C70.671 24.0404 69.604 24.2486 68.5276 24.241ZM68.5276 9.7153C65.1543 9.7153 62.6831 12.4749 62.6831 16C62.6831 19.5251 65.1543 22.2847 68.5276 22.2847C71.9009 22.2847 74.3721 19.5251 74.3721 16C74.3721 12.4749 71.9009 9.70586 68.5276 9.70586V9.7153Z" fill="#3D4853"/>
<path d="M42.1239 8.02362H45.8824C47.3509 7.95724 48.8088 8.30418 50.092 9.0254C50.6286 9.38475 51.0643 9.87688 51.3572 10.4545C51.6501 11.0321 51.7904 11.6758 51.7646 12.3237C51.7884 13.0676 51.562 13.7979 51.1221 14.3964C50.6822 14.9949 50.0544 15.4267 49.3403 15.622C51.3793 16.2363 52.4223 17.5121 52.4223 19.4022C52.4353 20.2383 52.195 21.0585 51.7335 21.754C51.2719 22.4495 50.6109 22.9873 49.8383 23.2959C48.5023 23.7666 47.0904 23.9814 45.6757 23.9291H42.0957V8.02362H42.1239ZM48.7013 10.5281C47.6668 10.0298 46.517 9.82403 45.375 9.93266H44.285V14.8565H45.7979C48.1751 14.8565 49.5564 14.1004 49.5564 12.4465C49.6003 12.0798 49.5449 11.7079 49.396 11.3703C49.2472 11.0326 49.0104 10.7416 48.7107 10.5281H48.7013ZM46.8221 16.7655H44.285V22.0484H45.4878C46.6271 22.1227 47.7693 21.9586 48.8423 21.5664C49.2468 21.389 49.5873 21.0906 49.8176 20.712C50.0478 20.3333 50.1568 19.8925 50.1296 19.4495C50.139 17.8618 48.9832 16.775 46.8315 16.775L46.8221 16.7655Z" fill="#3D4853"/>
<path d="M26.1407 17.0396C26.1326 16.5466 26.0981 16.0545 26.0373 15.5653C25.8877 14.141 25.5035 12.7516 24.9004 11.4542L24.6655 11.0006V10.925H24.5339H24.1205C22.9719 11.0304 21.8397 11.2714 20.7472 11.6432L20.4089 11.7661V11.4826C20.1938 10.087 19.8218 8.72049 19.3001 7.40933C19.0029 6.67967 18.6544 5.97222 18.2572 5.29238C17.4333 3.95127 16.4417 2.72209 15.3067 1.63497C14.6935 1.09428 14.0331 0.610338 13.3335 0.189014L13.1737 0.0850561L13.0986 0.0377998L13.0234 0.0850561L12.873 0.189014C11.2395 1.32273 9.83624 2.75977 8.73865 4.42291C7.88722 5.66667 7.18097 7.00488 6.63386 8.4111C6.23766 9.41775 5.96014 10.4676 5.80698 11.5393C5.80698 11.6432 5.80698 11.7377 5.80698 11.8417C5.80698 11.9457 5.46871 11.6999 4.86735 11.5298L4.65123 11.4731C3.64279 11.2082 2.61555 11.0217 1.57862 10.9155L1.22156 11.7944C1.1182 12.0307 1.01484 12.267 0.92088 12.5127C0.247451 14.3219 -0.0282359 16.2564 0.112793 18.1831C0.190162 19.3542 0.404628 20.512 0.751746 21.6326C1.67463 24.6341 3.46364 27.292 5.89155 29.2688C6.68571 29.9441 7.5638 30.5128 8.50374 30.9604C9.97577 31.6493 11.5784 32.0104 13.2019 32.0189H13.4274C15.1822 31.9024 16.8924 31.4128 18.4451 30.5824C18.8021 30.3839 19.1592 30.1477 19.1686 30.1477C19.65 29.8337 20.1114 29.4897 20.5499 29.1175C21.8602 28.0159 22.9836 26.7072 23.8762 25.2428C24.7855 23.7841 25.4579 22.1889 25.8682 20.5174C26.0981 19.3734 26.1896 18.2057 26.1407 17.0396ZM13.1549 25.7058C13.1456 27.1081 12.9107 28.4995 12.4596 29.8263C9.79149 29.3464 7.3455 28.022 5.47811 26.0461C4.28137 24.6876 3.37042 23.0995 2.80015 21.3774C2.28349 19.8943 2.05074 18.3263 2.11421 16.7561C2.18472 15.5761 2.41875 14.4119 2.80954 13.2971V13.2404H2.9317C3.76245 13.3895 4.5773 13.6173 5.36535 13.9208L5.60026 14.0154C6.61571 14.4958 7.56356 15.1091 8.41917 15.8393C9.76601 16.9557 10.8614 18.3474 11.6327 19.922C11.8113 20.3001 11.9616 20.697 12.0556 20.9333C12.4698 21.8577 12.7848 22.824 12.9952 23.8157C13.1078 24.4392 13.1613 25.0721 13.1549 25.7058ZM13.0892 18.1453C12.6089 17.3329 12.0586 16.5645 11.4448 15.8488C11.0852 15.4186 10.6992 15.0114 10.289 14.6297C9.89119 14.2396 9.47075 13.8735 9.02993 13.5334C8.63529 13.2498 8.22184 12.9852 7.8084 12.7395C7.87961 12.0777 7.99259 11.4211 8.14667 10.7738C8.54953 9.0475 9.24569 7.40415 10.2045 5.91612C10.7852 5.04062 11.4492 4.22402 12.1871 3.47785C12.4972 3.16597 12.8261 2.8541 13.1267 2.53278C14.6266 3.72156 15.8676 5.20772 16.7725 6.899C17.3127 7.94364 17.732 9.04712 18.0222 10.1878C18.236 11.0126 18.3837 11.8532 18.4639 12.7017C17.2924 13.3811 16.2204 14.2208 15.2785 15.1967C14.4332 16.0872 13.6981 17.0773 13.0892 18.1453ZM22.1848 23.8819C20.5081 26.6933 17.814 28.7425 14.6677 29.5995C14.9053 28.7817 15.0657 27.9432 15.147 27.0951C15.2261 26.2306 15.2261 25.3606 15.147 24.4962C15.0217 23.1106 14.7054 21.7492 14.2073 20.4513C14.6327 19.5043 15.1655 18.6099 15.7953 17.7862C16.4117 16.9741 17.1213 16.2381 17.9095 15.5936C18.7303 14.9353 19.6339 14.3888 20.5968 13.9681C21.478 13.5869 22.4028 13.3171 23.35 13.1648C23.514 13.6836 23.652 14.2103 23.7634 14.7431C23.9607 15.9622 24.0547 16.9073 24.0641 17.0018C24.1137 19.4298 23.4609 21.8201 22.1848 23.8819Z" fill="#F49879"/>
</g>
<defs>
<clipPath id="clip0">
<rect width="165" height="32" fill="white"/>
</clipPath>
</defs>
</svg>
