<svg width="147" height="35" viewBox="0 0 147 35" fill="none" xmlns="http://www.w3.org/2000/svg">
<g clip-path="url(#clip0)">
<path d="M138.528 25.8709V8.93115H147.008V11.0097H140.47V16.0906H147.008V18.1692H140.47V23.7823H147.008V25.8609H138.528V25.8709Z" fill="white"/>
<path d="M129.018 25.8709L124.782 18.6813H123.326V25.8408H121.392V8.93115H125.578C127.738 8.93115 130.4 10.2867 130.4 13.7912C130.408 14.9538 130.062 16.0802 129.427 16.9585C128.792 17.8368 127.911 18.4067 126.951 18.5608L131.429 25.8709H129.01H129.018ZM125.486 11.0097H123.326V16.673H125.084C126.959 16.673 128.349 15.8496 128.349 13.9117C128.349 12.1544 127.202 11.0097 125.486 11.0097Z" fill="white"/>
<path d="M110.794 25.8709V8.93115H112.728V25.8709H110.794Z" fill="white"/>
<path d="M97.9274 18.6813V25.9211H95.9937V8.93115H103.159V11.0097H97.9358V16.5525H103.159V18.6813H97.9358H97.9274Z" fill="white"/>
<path d="M85.5881 25.8709L77.8447 13.2389V25.8709H75.9109V8.93115H77.5851L85.3537 21.5632V8.93115H87.2875V25.8709H85.6132H85.5881Z" fill="white"/>
<path d="M61.0518 26.1624C59.6066 26.1704 58.192 25.6636 56.9872 24.7063C55.7823 23.749 54.8415 22.3843 54.2838 20.7851C53.7262 19.1858 53.5768 17.424 53.8547 15.7229C54.1326 14.0218 54.8252 12.4578 55.8447 11.2292C56.8643 10.0007 58.1649 9.16272 59.5818 8.8216C60.9987 8.48048 62.4682 8.65152 63.804 9.31305C65.1398 9.97458 66.2819 11.0968 67.0855 12.5376C67.8891 13.9784 68.318 15.6729 68.3181 17.4064C68.3292 18.5565 68.1491 19.6979 67.7883 20.7636C67.4275 21.8293 66.8932 22.7981 66.2167 23.6134C65.5402 24.4286 64.735 25.0739 63.8482 25.5116C62.9614 25.9492 62.0107 26.1705 61.0518 26.1624ZM61.0518 10.7289C58.0465 10.7289 55.8448 13.6609 55.8448 17.4064C55.8448 21.1518 58.0465 24.0839 61.0518 24.0839C64.0571 24.0839 66.2587 21.1518 66.2587 17.4064C66.2587 13.6609 64.0571 10.7188 61.0518 10.7188V10.7289Z" fill="white"/>
<path d="M37.5285 8.93137H40.8771C42.1854 8.86085 43.4841 9.22946 44.6274 9.99576C45.1055 10.3776 45.4936 10.9005 45.7546 11.5142C46.0156 12.1279 46.1405 12.8118 46.1175 13.5002C46.1387 14.2906 45.937 15.0665 45.5451 15.7024C45.1532 16.3384 44.5939 16.7972 43.9577 17.0046C45.7743 17.6573 46.7035 19.0129 46.7035 21.0212C46.715 21.9095 46.501 22.781 46.0898 23.5199C45.6786 24.2588 45.0897 24.8302 44.4014 25.1582C43.2111 25.6583 41.9532 25.8865 40.6929 25.831H37.5034V8.93137H37.5285ZM43.3884 11.5923C42.4667 11.063 41.4424 10.8443 40.425 10.9597H39.4539V16.1913H40.8017C42.9196 16.1913 44.1502 15.388 44.1502 13.6307C44.1893 13.2411 44.14 12.846 44.0074 12.4872C43.8747 12.1284 43.6638 11.8192 43.3968 11.5923H43.3884ZM41.7142 18.2196H39.4539V23.8327H40.5255C41.5404 23.9116 42.558 23.7372 43.514 23.3206C43.8744 23.132 44.1777 22.8151 44.3829 22.4127C44.588 22.0104 44.6851 21.5421 44.6609 21.0714C44.6692 19.3844 43.6396 18.2297 41.7226 18.2297L41.7142 18.2196Z" fill="white"/>
<path d="M23.2891 18.5107C23.2818 17.9869 23.2511 17.464 23.197 16.9442C23.0637 15.4309 22.7214 13.9548 22.1841 12.5762L21.9748 12.0943V12.0139H21.8576H21.4892C20.466 12.1259 19.4573 12.382 18.4839 12.7771L18.1826 12.9076V12.6064C17.9909 11.1236 17.6595 9.67165 17.1948 8.27854C16.9299 7.50328 16.6194 6.75161 16.2656 6.02928C15.5316 4.60435 14.6482 3.29835 13.637 2.14328C13.0907 1.5688 12.5023 1.05461 11.879 0.606954L11.7367 0.496499L11.6697 0.446289L11.6027 0.496499L11.4688 0.606954C10.0135 1.81153 8.76328 3.33838 7.78543 5.10547C7.02689 6.42697 6.39768 7.84881 5.91025 9.34292C5.55728 10.4125 5.31003 11.528 5.17358 12.6666C5.17358 12.7771 5.17358 12.8775 5.17358 12.9879C5.17358 13.0984 4.87221 12.8373 4.33645 12.6566L4.14391 12.5963C3.24548 12.3148 2.3303 12.1167 1.4065 12.0039L1.08839 12.9377C0.996306 13.1888 0.904222 13.4398 0.820509 13.7009C0.220545 15.6232 -0.0250669 17.6786 0.100577 19.7257C0.169506 20.97 0.360576 22.2002 0.669826 23.3908C1.49203 26.5799 3.08587 29.4039 5.24893 31.5042C5.95645 32.2218 6.73875 32.826 7.57615 33.3016C8.88759 34.0336 10.3153 34.4172 11.7618 34.4262H11.9627C13.526 34.3024 15.0497 33.7822 16.433 32.8999C16.7511 32.6891 17.0692 32.438 17.0776 32.438C17.5065 32.1045 17.9175 31.7389 18.3082 31.3435C19.4755 30.173 20.4764 28.7825 21.2716 27.2266C22.0817 25.6767 22.6808 23.9819 23.0463 22.2059C23.2511 20.9904 23.3326 19.7497 23.2891 18.5107ZM11.7199 27.7186C11.7116 29.2085 11.5024 30.6869 11.1005 32.0966C8.72342 31.5867 6.54426 30.1795 4.88059 28.0801C3.8144 26.6367 3.00283 24.9493 2.49477 23.1197C2.03447 21.5439 1.82711 19.8778 1.88366 18.2094C1.94647 16.9558 2.15498 15.7188 2.50314 14.5343V14.4741H2.61197C3.35209 14.6324 4.07805 14.8745 4.78013 15.197L4.98941 15.2975C5.89408 15.8079 6.73853 16.4595 7.5008 17.2354C8.70072 18.4216 9.67663 19.9002 10.3638 21.5733C10.5228 21.9749 10.6568 22.3967 10.7405 22.6477C11.1096 23.6299 11.3902 24.6566 11.5776 25.7103C11.678 26.3728 11.7256 27.0453 11.7199 27.7186ZM11.6613 19.6855C11.2334 18.8223 10.7432 18.0059 10.1964 17.2455C9.87598 16.7884 9.53208 16.3558 9.16669 15.9501C8.81224 15.5357 8.43767 15.1467 8.04494 14.7853C7.69334 14.4841 7.325 14.2029 6.95667 13.9419C7.0201 13.2387 7.12076 12.5411 7.25803 11.8533C7.61694 10.0191 8.23716 8.27304 9.09135 6.69201C9.6087 5.76179 10.2003 4.89414 10.8577 4.10134C11.1339 3.76997 11.4269 3.43861 11.6948 3.0972C13.0311 4.36028 14.1366 5.93933 14.9429 7.73632C15.4241 8.84625 15.7977 10.0187 16.0563 11.2307C16.2467 12.107 16.3783 13.0002 16.4497 13.9017C15.4061 14.6236 14.451 15.5157 13.6119 16.5526C12.8588 17.4988 12.2039 18.5507 11.6613 19.6855ZM19.7648 25.7806C18.2709 28.7678 15.8708 30.945 13.0677 31.8556C13.2794 30.9867 13.4223 30.0958 13.4947 29.1947C13.5651 28.2762 13.5651 27.3518 13.4947 26.4333C13.383 24.9611 13.1013 23.5147 12.6575 22.1356C13.0365 21.1294 13.5112 20.1792 14.0723 19.3039C14.6214 18.4411 15.2536 17.6592 15.9558 16.9744C16.6871 16.2749 17.4921 15.6942 18.35 15.2472C19.135 14.8422 19.9589 14.5555 20.8028 14.3937C20.9489 14.9449 21.0718 15.5046 21.1711 16.0706C21.3469 17.366 21.4306 18.3701 21.439 18.4705C21.4832 21.0503 20.9016 23.59 19.7648 25.7806Z" fill="#F49879"/>
</g>
<defs>
<clipPath id="clip0">
<rect width="147" height="34" fill="white" transform="translate(0 0.40625)"/>
</clipPath>
</defs>
</svg>
