<svg width="66" height="66" viewBox="0 0 66 66" fill="none" xmlns="http://www.w3.org/2000/svg">
<rect x="1" y="1.40771" width="64" height="64" rx="32" fill="white"/>
<path d="M44.6071 23.7358H21.3929C20.899 23.7358 20.5 24.1421 20.5 24.6449V42.8267C20.5 43.3296 20.899 43.7358 21.3929 43.7358H44.6071C45.101 43.7358 45.5 43.3296 45.5 42.8267V24.6449C45.5 24.1421 45.101 23.7358 44.6071 23.7358ZM43.4911 26.8836V41.6904H22.5089V26.8836L21.7388 26.2728L22.8354 24.8381L24.0296 25.7841H41.9732L43.1674 24.8381L44.264 26.2728L43.4911 26.8836ZM41.9732 25.7813L33 32.8836L24.0268 25.7813L22.8326 24.8353L21.736 26.2699L22.5061 26.8807L32.0374 34.4262C32.3115 34.643 32.6487 34.7607 32.9958 34.7607C33.3429 34.7607 33.6801 34.643 33.9542 34.4262L43.4911 26.8836L44.2612 26.2728L43.1646 24.8381L41.9732 25.7813Z" fill="#2091F9"/>
<rect x="1" y="1.40771" width="64" height="64" rx="32" stroke="url(#paint0_linear)"/>
<defs>
<linearGradient id="paint0_linear" x1="1.62926" y1="65.9077" x2="47.8054" y2="10.817" gradientUnits="userSpaceOnUse">
<stop stop-color="#00F3B9"/>
<stop offset="1" stop-color="#2187FF"/>
</linearGradient>
</defs>
</svg>
