<svg id="Layer_1" data-name="Layer 1" xmlns="http://www.w3.org/2000/svg" width="56" height="47.4" viewBox="0 0 56 47.4"><title>medium</title><path d="M1972.3,558.6l0,0h0l-16.89-8.45A1.77,1.77,0,0,0,1955,550a1.87,1.87,0,0,0-.46-0.06,1.93,1.93,0,0,0-1.64.89l-9.73,15.8,12.21,19.83,17-27.59A0.21,0.21,0,0,0,1972.3,558.6Z" transform="translate(-1916.47 -549.93)" style="fill:#231f20"/><polygon points="21.34 13.1 21.34 31.09 37.33 39.08 21.34 13.1" style="fill:#231f20"/><path d="M1956.21,590.21l13.16,6.58c1.71,0.86,3.1.26,3.1-1.34V563.78Z" transform="translate(-1916.47 -549.93)" style="fill:#231f20"/><path d="M1935,558.63l-16.5-8.25a1.89,1.89,0,0,0-.84-0.22,1.29,1.29,0,0,0-1.23,1.5v35.62a3.08,3.08,0,0,0,1.55,2.51l14.53,7.27a2.36,2.36,0,0,0,1,.27,1.62,1.62,0,0,0,1.54-1.87V558.79A0.18,0.18,0,0,0,1935,558.63Z" transform="translate(-1916.47 -549.93)" style="fill:#231f20"/></svg>