<svg width="64" height="64" viewBox="0 0 64 64" fill="none" xmlns="http://www.w3.org/2000/svg">
<path d="M57.4795 45.1201C57.2143 45.1201 56.96 45.0147 56.7725 44.8272C56.5849 44.6397 56.4795 44.3853 56.4795 44.1201V19.8701C56.4795 19.6049 56.5849 19.3505 56.7725 19.163C56.96 18.9755 57.2143 18.8701 57.4795 18.8701C57.7447 18.8701 57.999 18.9755 58.1865 19.163C58.3741 19.3505 58.4795 19.6049 58.4795 19.8701V44.1201C58.4795 44.3853 58.3741 44.6397 58.1865 44.8272C57.999 45.0147 57.7447 45.1201 57.4795 45.1201Z" fill="#3D4853"/>
<path d="M57.4595 45.1201H6.5293C6.26408 45.1201 6.0098 45.0147 5.82227 44.8272C5.63473 44.6397 5.5293 44.3853 5.5293 44.1201C5.5293 43.8549 5.63473 43.6005 5.82227 43.413C6.0098 43.2255 6.26408 43.1201 6.5293 43.1201H57.4595C57.7247 43.1201 57.979 43.2255 58.1665 43.413C58.354 43.6005 58.4595 43.8549 58.4595 44.1201C58.4595 44.3853 58.354 44.6397 58.1665 44.8272C57.979 45.0147 57.7247 45.1201 57.4595 45.1201Z" fill="#3D4853"/>
<path d="M62.5 49.8801C62.2348 49.8801 61.9805 49.7748 61.793 49.5872C61.6054 49.3997 61.5 49.1453 61.5 48.8801V24.6301C61.5 24.3649 61.6054 24.1105 61.793 23.923C61.9805 23.7355 62.2348 23.6301 62.5 23.6301C62.7652 23.6301 63.0195 23.7355 63.207 23.923C63.3946 24.1105 63.5 24.3649 63.5 24.6301V48.8801C63.5 49.1453 63.3946 49.3997 63.207 49.5872C63.0195 49.7748 62.7652 49.8801 62.5 49.8801Z" fill="#3D4853"/>
<path d="M62.48 49.8801H11.5498C11.2846 49.8801 11.0303 49.7748 10.8428 49.5872C10.6552 49.3997 10.5498 49.1453 10.5498 48.8801C10.5498 48.6149 10.6552 48.3605 10.8428 48.173C11.0303 47.9855 11.2846 47.8801 11.5498 47.8801H62.48C62.7452 47.8801 62.9995 47.9855 63.187 48.173C63.3745 48.3605 63.48 48.6149 63.48 48.8801C63.48 49.1453 63.3745 49.3997 63.187 49.5872C62.9995 49.7748 62.7452 49.8801 62.48 49.8801Z" fill="#3D4853"/>
<path d="M52.4697 16.1101H1.46973C1.20451 16.1101 0.949743 16.0048 0.762207 15.8172C0.574671 15.6297 0.469727 15.3753 0.469727 15.1101C0.469727 14.8449 0.574671 14.5906 0.762207 14.403C0.949743 14.2155 1.20451 14.1101 1.46973 14.1101H52.4697C52.7349 14.1101 52.9892 14.2155 53.1768 14.403C53.3643 14.5906 53.4697 14.8449 53.4697 15.1101C53.4697 15.3753 53.3643 15.6297 53.1768 15.8172C52.9892 16.0048 52.7349 16.1101 52.4697 16.1101Z" fill="#3D4853"/>
<path d="M1.5 40.3701C1.23478 40.3701 0.980505 40.2647 0.792969 40.0772C0.605432 39.8897 0.5 39.6353 0.5 39.3701V15.1101C0.5 14.8449 0.605432 14.5906 0.792969 14.403C0.980505 14.2155 1.23478 14.1101 1.5 14.1101C1.76522 14.1101 2.01949 14.2155 2.20703 14.403C2.39457 14.5906 2.5 14.8449 2.5 15.1101V39.3601C2.50132 39.4923 2.47642 39.6234 2.42676 39.7459C2.3771 39.8684 2.30344 39.9798 2.21045 40.0737C2.11746 40.1676 2.00724 40.2422 1.88525 40.2931C1.76327 40.3439 1.63217 40.3701 1.5 40.3701Z" fill="#3D4853"/>
<path d="M52.4297 40.3701C52.1645 40.3701 51.9102 40.2647 51.7227 40.0772C51.5351 39.8897 51.4297 39.6353 51.4297 39.3701V15.1201C51.4297 14.8549 51.5351 14.6005 51.7227 14.413C51.9102 14.2255 52.1645 14.1201 52.4297 14.1201C52.6949 14.1201 52.9492 14.2255 53.1367 14.413C53.3243 14.6005 53.4297 14.8549 53.4297 15.1201V39.3701C53.4297 39.6353 53.3243 39.8897 53.1367 40.0772C52.9492 40.2647 52.6949 40.3701 52.4297 40.3701Z" fill="#3D4853"/>
<path d="M52.4297 23.8201C52.1645 23.8201 51.9102 23.7148 51.7227 23.5272C51.5351 23.3397 51.4297 23.0853 51.4297 22.8201V15.1101C51.4297 14.8449 51.5351 14.5906 51.7227 14.403C51.9102 14.2155 52.1645 14.1101 52.4297 14.1101C52.6949 14.1101 52.9492 14.2155 53.1367 14.403C53.3243 14.5906 53.4297 14.8449 53.4297 15.1101V22.8201C53.4297 23.0853 53.3243 23.3397 53.1367 23.5272C52.9492 23.7148 52.6949 23.8201 52.4297 23.8201Z" fill="#3D4853"/>
<path d="M52.4302 40.3701H1.5C1.23478 40.3701 0.980505 40.2647 0.792969 40.0772C0.605432 39.8897 0.5 39.6353 0.5 39.3701C0.5 39.1049 0.605432 38.8505 0.792969 38.663C0.980505 38.4755 1.23478 38.3701 1.5 38.3701H52.4302C52.6954 38.3701 52.9497 38.4755 53.1372 38.663C53.3247 38.8505 53.4302 39.1049 53.4302 39.3701C53.4302 39.6353 53.3247 39.8897 53.1372 40.0772C52.9497 40.2647 52.6954 40.3701 52.4302 40.3701Z" fill="#3D4853"/>
<path d="M39.0894 19.97H14.8193C14.5541 19.97 14.2998 19.8646 14.1123 19.6771C13.9248 19.4895 13.8193 19.2352 13.8193 18.97C13.8193 18.7048 13.9248 18.4504 14.1123 18.2628C14.2998 18.0753 14.5541 17.97 14.8193 17.97H39.0894C39.3546 17.97 39.6093 18.0753 39.7969 18.2628C39.9844 18.4504 40.0894 18.7048 40.0894 18.97C40.0894 19.2352 39.9844 19.4895 39.7969 19.6771C39.6093 19.8646 39.3546 19.97 39.0894 19.97Z" fill="#3D4853"/>
<path d="M11.0693 33.24C10.1116 33.2388 9.18393 32.9056 8.44431 32.2971C7.70469 31.6886 7.19892 30.8425 7.01316 29.903C6.82739 28.9634 6.97334 27.9885 7.42575 27.1443C7.87817 26.3002 8.60937 25.639 9.4946 25.2734C10.3798 24.9078 11.364 24.8605 12.2802 25.1395C13.1965 25.4184 13.9877 26.0064 14.519 26.8033C15.0503 27.6001 15.2891 28.5565 15.1943 29.5095C15.0996 30.4626 14.6773 31.3533 13.9995 32.03C13.6149 32.4147 13.1581 32.7196 12.6552 32.9273C12.1524 33.1349 11.6133 33.2412 11.0693 33.24ZM11.0693 26.97C10.7169 26.9689 10.3697 27.0549 10.0586 27.2203C9.7474 27.3857 9.4819 27.6253 9.28562 27.918C9.08934 28.2106 8.96848 28.5472 8.93357 28.8979C8.89865 29.2485 8.95071 29.6024 9.08542 29.928C9.22013 30.2536 9.43358 30.541 9.70603 30.7645C9.97847 30.988 10.3018 31.1407 10.6474 31.2092C10.9931 31.2776 11.3504 31.2597 11.6875 31.1569C12.0245 31.0541 12.3309 30.8697 12.5796 30.62C12.881 30.3212 13.0869 29.9396 13.1709 29.5236C13.2549 29.1077 13.2131 28.6761 13.0512 28.2838C12.8894 27.8915 12.6146 27.5562 12.2617 27.3204C11.9088 27.0847 11.4937 26.9592 11.0693 26.96V26.97Z" fill="#3D4853"/>
<path d="M42.8301 33.24C41.8724 33.2388 40.9448 32.9056 40.2051 32.2971C39.4655 31.6886 38.9598 30.8425 38.774 29.903C38.5882 28.9634 38.7337 27.9885 39.1861 27.1443C39.6385 26.3002 40.3697 25.639 41.255 25.2734C42.1402 24.9078 43.1249 24.8605 44.0411 25.1395C44.9573 25.4184 45.7485 26.0064 46.2799 26.8033C46.8112 27.6001 47.0499 28.5565 46.9551 29.5095C46.8604 30.4626 46.4381 31.3533 45.7603 32.03C45.3757 32.4147 44.9184 32.7196 44.4156 32.9273C43.9128 33.1349 43.3742 33.2412 42.8301 33.24ZM44.3399 30.62L45.0499 31.33L44.3399 30.62C44.7356 30.221 44.9581 29.6819 44.9581 29.12C44.9581 28.5581 44.7356 28.0189 44.3399 27.62C43.9397 27.2267 43.401 27.0063 42.8399 27.0063C42.2788 27.0063 41.7401 27.2267 41.3399 27.62C40.9442 28.0189 40.7222 28.5581 40.7222 29.12C40.7222 29.6819 40.9442 30.221 41.3399 30.62C41.7444 31.0112 42.2864 31.2283 42.8492 31.2246C43.412 31.2208 43.9509 30.9966 44.3502 30.5999L44.3399 30.62Z" fill="#3D4853"/>
<path d="M26.9499 36.39C25.2612 36.3863 23.626 35.7972 22.3229 34.7231C21.0198 33.649 20.1294 32.1564 19.8034 30.4994C19.4773 28.8425 19.7358 27.1238 20.5348 25.6361C21.3338 24.1484 22.6238 22.9837 24.1852 22.3404C25.7466 21.6971 27.4827 21.6151 29.0978 22.1082C30.7129 22.6014 32.1069 23.6392 33.0426 25.0449C33.9784 26.4506 34.3979 28.1373 34.2296 29.8176C34.0613 31.4978 33.3157 33.0678 32.1198 34.26C31.4403 34.9374 30.6338 35.4742 29.7467 35.8397C28.8596 36.2051 27.9093 36.3921 26.9499 36.39ZM26.9499 23.79C25.7242 23.7934 24.5375 24.2215 23.592 25.0014C22.6464 25.7814 22.0003 26.8649 21.7638 28.0676C21.5274 29.2703 21.7152 30.5177 22.2951 31.5976C22.875 32.6774 23.8113 33.5229 24.9445 33.99C26.0777 34.4571 27.3375 34.517 28.5099 34.1596C29.6823 33.8021 30.6949 33.0494 31.3747 32.0294C32.0544 31.0095 32.3597 29.7855 32.2384 28.5658C32.1172 27.3461 31.5769 26.2062 30.7096 25.34C30.2158 24.8468 29.6293 24.456 28.984 24.19C28.3388 23.924 27.6478 23.7881 26.9499 23.79Z" fill="#3D4853"/>
<path d="M1.5 22.7101C1.23478 22.7101 0.980505 22.6047 0.792969 22.4172C0.605432 22.2297 0.5 21.9753 0.5 21.7101C0.5 21.4449 0.605432 21.1905 0.792969 21.003C0.980505 20.8155 1.23478 20.7101 1.5 20.7101C2.98613 20.7101 4.41159 20.1204 5.46338 19.0705C6.51517 18.0206 7.10721 16.5962 7.10986 15.1101C7.10986 14.8449 7.2153 14.5906 7.40283 14.403C7.59037 14.2155 7.84465 14.1101 8.10986 14.1101C8.37508 14.1101 8.62936 14.2155 8.81689 14.403C9.00443 14.5906 9.10986 14.8449 9.10986 15.1101C9.10721 17.1267 8.30431 19.0598 6.87744 20.4847C5.45058 21.9097 3.51657 22.7101 1.5 22.7101Z" fill="#3D4853"/>
<path d="M51.9399 22.7101C49.9234 22.7101 47.9894 21.9097 46.5625 20.4847C45.1356 19.0598 44.3327 17.1267 44.3301 15.1101C44.3301 14.8449 44.4355 14.5906 44.623 14.403C44.8106 14.2155 45.0649 14.1101 45.3301 14.1101C45.5953 14.1101 45.8496 14.2155 46.0371 14.403C46.2246 14.5906 46.3301 14.8449 46.3301 15.1101C46.3327 16.5962 46.9248 18.0206 47.9766 19.0705C49.0284 20.1204 50.4538 20.7101 51.9399 20.7101C52.2052 20.7101 52.4594 20.8155 52.647 21.003C52.8345 21.1905 52.9399 21.4449 52.9399 21.7101C52.9399 21.9753 52.8345 22.2297 52.647 22.4172C52.4594 22.6047 52.2052 22.7101 51.9399 22.7101Z" fill="#3D4853"/>
</svg>
