<svg width="19" height="19" viewBox="0 0 19 19" fill="none" xmlns="http://www.w3.org/2000/svg">
<path d="M18.8521 3.81532C18.7588 3.73682 18.6373 3.70461 18.5151 3.72443L18.1309 3.79135C15.29 4.28619 12.4111 4.26388 9.57599 3.72525C6.64421 3.16764 3.66701 3.14452 0.72613 3.65667L0.342 3.72358C0.144552 3.75832 0 3.93013 0 4.13087V14.87C0 14.9914 0.0537085 15.1079 0.147882 15.1855C0.241243 15.264 0.363491 15.2962 0.484926 15.2764L0.869056 15.2095C3.70995 14.7138 6.58888 14.737 9.42401 15.2756C10.9523 15.5664 12.4929 15.7118 14.0344 15.7118C15.4495 15.7118 16.8662 15.5895 18.2739 15.3442L18.658 15.2773C18.8554 15.2426 19 15.0708 19 14.87V4.13087C19 4.00943 18.9463 3.89296 18.8521 3.81532ZM18.1739 14.523L18.1309 14.5305C15.29 15.0253 12.4111 15.003 9.57599 14.4644C8.04772 14.1736 6.5071 14.0282 4.96562 14.0282C3.58356 14.0282 2.20069 14.1455 0.826112 14.3784V4.47779L0.868243 4.47116C3.70999 3.97551 6.58888 3.99782 9.42401 4.53641C12.3219 5.08659 15.2661 5.11632 18.1739 4.62149V14.523H18.1739Z" fill="white"/>
<path d="M9.58574 9.10064L9.49486 9.08329C8.65391 8.92798 8.2615 8.66861 8.2615 8.26547C8.2615 7.81772 8.82902 7.43939 9.50144 7.43939C10.1483 7.43939 10.7042 7.79049 10.7406 8.22086C10.7596 8.44805 10.9644 8.62563 11.1867 8.59755C11.4138 8.57854 11.5824 8.37865 11.5634 8.15147C11.489 7.27416 10.6026 6.61328 9.50063 6.61328C8.36144 6.61328 7.43457 7.35428 7.43457 8.26547C7.43457 9.11385 8.07725 9.66239 9.41718 9.90937L9.5064 9.9259C10.3465 10.0812 10.7381 10.3406 10.7381 10.7437C10.7381 11.1915 10.1706 11.5698 9.49815 11.5698C8.85132 11.5698 8.29538 11.2196 8.25902 10.7883C8.24001 10.5612 8.04093 10.3893 7.81293 10.4116C7.58574 10.4307 7.41722 10.6305 7.43624 10.8577C7.50977 11.7342 8.39699 12.3959 9.49896 12.3959C10.6382 12.3959 11.565 11.6549 11.5658 10.7446C11.5659 9.89531 10.924 9.34762 9.58574 9.10064Z" fill="white"/>
<path d="M9.49997 6.19531C9.27197 6.19531 9.08691 6.38037 9.08691 6.60837V12.391C9.08691 12.619 9.27197 12.804 9.49997 12.804C9.72797 12.804 9.91302 12.619 9.91302 12.391V6.60837C9.91302 6.38037 9.72797 6.19531 9.49997 6.19531Z" fill="white"/>
</svg>
