<svg width="25" height="24" viewBox="0 0 25 24" fill="none" xmlns="http://www.w3.org/2000/svg">
<path d="M25 16.1803L0 24V7.82951L25 0V16.1803Z" fill="#F59979"/>
<path d="M7.22342 16.6427L4.58769 13.6919V17.4297L3.41846 17.7936V11.8231L4.40934 11.4985L7.0649 14.4493V10.7018L8.23414 10.3379V16.3182L7.22342 16.6427Z" fill="white"/>
<path d="M9.56201 15.9148V9.94432L13.2382 8.79346V9.77706L10.7313 10.564V11.9115L13.2382 11.1246V12.1082L10.7313 12.8951V14.4197L13.2382 13.6328V14.6165L9.56201 15.9148Z" fill="white"/>
<path d="M19.2925 10.7113L20.2834 6.58992L21.5913 6.17676L19.9465 12.6687L18.7871 13.0326L17.7467 9.43255L16.6766 13.6915L15.5569 14.0456L13.9517 8.57682L15.2596 8.16366L16.2505 11.6949L17.2413 7.55383L18.3413 7.20959L19.2925 10.7113Z" fill="white"/>
</svg>
