<svg id="Layer_1" data-name="Layer 1" xmlns="http://www.w3.org/2000/svg" width="64" height="64" viewBox="0 0 64 64"><defs><style>.cls-1{fill:#fff;opacity:0;}.cls-2{fill:#3d4853;}</style></defs><title>dashboard-site</title><rect class="cls-1" width="64" height="64"/><path class="cls-2" d="M4693.39,483.07h-54.46a1,1,0,0,1-1-1V429.75a1,1,0,0,1,1-1h54.46a1,1,0,0,1,1,1v52.32A1,1,0,0,1,4693.39,483.07Zm-53.46-2h52.46V430.75h-52.46v50.32Z" transform="translate(-4634.16 -423.91)"/><path class="cls-2" d="M4685.12,446.57h-13a1,1,0,0,1,0-2h13A1,1,0,0,1,4685.12,446.57Z" transform="translate(-4634.16 -423.91)"/><path class="cls-2" d="M4680.46,452.21h-8.36a1,1,0,0,1,0-2h8.36A1,1,0,0,1,4680.46,452.21Z" transform="translate(-4634.16 -423.91)"/><path class="cls-2" d="M4680.46,457.85h-8.36a1,1,0,0,1,0-2h8.36A1,1,0,0,1,4680.46,457.85Z" transform="translate(-4634.16 -423.91)"/><path class="cls-2" d="M4680.46,463.5h-8.36a1,1,0,0,1,0-2h8.36A1,1,0,0,1,4680.46,463.5Z" transform="translate(-4634.16 -423.91)"/><path class="cls-2" d="M4693.39,437.66h-54.46a1,1,0,0,1,0-2h54.46A1,1,0,0,1,4693.39,437.66Z" transform="translate(-4634.16 -423.91)"/><path class="cls-2" d="M4666.11,475H4645.8a1,1,0,0,1-1-1V445.27a1,1,0,0,1,1-1h20.31a1,1,0,0,1,1,1V474A1,1,0,0,1,4666.11,475Zm-19.31-2h18.31V446.27H4646.8V473Z" transform="translate(-4634.16 -423.91)"/><path class="cls-2" d="M4687.5,475h-15.4a1,1,0,0,1-1-1v-5.71a1,1,0,0,1,1-1h15.4a1,1,0,0,1,1,1V474A1,1,0,0,1,4687.5,475Zm-14.4-2h13.4v-3.71h-13.4V473Z" transform="translate(-4634.16 -423.91)"/><path class="cls-2" d="M4645.81,434.41a1,1,0,0,1,0-2h0A1,1,0,0,1,4645.81,434.41Z" transform="translate(-4634.16 -423.91)"/><path class="cls-2" d="M4650.06,434.41a1,1,0,0,1,0-2h0A1,1,0,0,1,4650.06,434.41Z" transform="translate(-4634.16 -423.91)"/><path class="cls-2" d="M4654.22,434.41a1,1,0,0,1,0-2h0A1,1,0,0,1,4654.22,434.41Z" transform="translate(-4634.16 -423.91)"/></svg>