<svg width="16" height="16" viewBox="0 0 16 16" fill="none" xmlns="http://www.w3.org/2000/svg">
<path d="M15.8335 7.59563L14.6911 6.45331L8.40516 0.167326C8.18203 -0.0557753 7.82027 -0.0557753 7.59714 0.167326L1.31113 6.45331L0.168235 7.59624C-0.0510154 7.82326 -0.044754 8.18501 0.182265 8.40426C0.403725 8.61816 0.754801 8.61816 0.976261 8.40426L1.14311 8.23624V15.4286C1.14311 15.7442 1.39896 16 1.71457 16H14.2866C14.6022 16 14.858 15.7442 14.858 15.4286V8.23624L15.0254 8.4037C15.2525 8.62295 15.6142 8.61665 15.8335 8.38966C16.0474 8.1682 16.0474 7.81709 15.8335 7.59563ZM9.71494 14.8571H6.28622V10.2855H9.71494V14.8571ZM13.7151 14.8571H10.8578V9.71404C10.8578 9.39843 10.602 9.14258 10.2864 9.14258H5.71476C5.39914 9.14258 5.14329 9.39843 5.14329 9.71404V14.8571H2.28604V7.09335L8.00055 1.3788L13.7151 7.09335V14.8571Z" fill="white"/>
</svg>
