<svg width="48" height="32" viewBox="0 0 48 32" fill="none" xmlns="http://www.w3.org/2000/svg">
<path d="M47.3332 1.3213C47.0988 1.12423 46.7939 1.04334 46.487 1.09311L45.5225 1.26112C38.3897 2.50354 31.1614 2.44754 24.0431 1.09516C16.682 -0.304866 9.20699 -0.362909 1.82314 0.922972L0.85868 1.09098C0.362936 1.17818 0 1.60957 0 2.11357V29.0769C0 29.3818 0.134849 29.6743 0.371298 29.8692C0.605704 30.0663 0.91264 30.1472 1.21753 30.0974L2.18199 29.9294C9.31482 28.6849 16.5431 28.743 23.6614 30.0954C27.4986 30.8254 31.3667 31.1905 35.237 31.1905C38.79 31.1905 42.3471 30.8835 45.8814 30.2675L46.8458 30.0995C47.3416 30.0124 47.7045 29.581 47.7045 29.077V2.11357C47.7045 1.80868 47.5696 1.51623 47.3332 1.3213ZM45.6303 28.2058L45.5225 28.2245C38.3897 29.4669 31.1614 29.4109 24.0431 28.0585C20.2059 27.3285 16.3378 26.9634 12.4675 26.9634C8.99748 26.9634 5.52542 27.2579 2.07417 27.8428V2.9846L2.17995 2.96798C9.31491 1.72351 16.5431 1.77951 23.6614 3.1318C30.9374 4.51315 38.3295 4.58782 45.6304 3.3454V28.2058H45.6303Z" fill="#3D4853"/>
<path d="M24.0681 14.585L23.8399 14.5415C21.7285 14.1515 20.7432 13.5003 20.7432 12.4881C20.7432 11.3639 22.1681 10.414 23.8564 10.414C25.4804 10.414 26.8763 11.2955 26.9676 12.3761C27.0153 12.9465 27.5296 13.3924 28.0876 13.3219C28.658 13.2741 29.0811 12.7723 29.0334 12.2019C28.8467 9.99916 26.6212 8.33984 23.8544 8.33984C20.9941 8.33984 18.667 10.2003 18.667 12.4881C18.667 14.6182 20.2806 15.9954 23.6449 16.6155L23.8689 16.657C25.9782 17.047 26.9613 17.6982 26.9613 18.7104C26.9613 19.8346 25.5364 20.7845 23.8481 20.7845C22.2241 20.7845 20.8283 19.9051 20.737 18.8224C20.6892 18.252 20.1894 17.8206 19.617 17.8766C19.0466 17.9244 18.6234 18.4262 18.6712 18.9966C18.8558 21.1973 21.0834 22.8587 23.8502 22.8587C26.7104 22.8587 29.0376 20.9982 29.0396 18.7126C29.0397 16.5802 27.4281 15.2051 24.0681 14.585Z" fill="#3D4853"/>
<path d="M23.8525 7.30078C23.2801 7.30078 22.8154 7.76541 22.8154 8.33787V22.8566C22.8154 23.429 23.2801 23.8937 23.8525 23.8937C24.425 23.8937 24.8896 23.429 24.8896 22.8566V8.33787C24.8896 7.76541 24.425 7.30078 23.8525 7.30078Z" fill="#3D4853"/>
</svg>
