<svg width="20" height="20" viewBox="0 0 20 20" fill="none" xmlns="http://www.w3.org/2000/svg">
<path d="M15.7407 0.488185C15.0891 -0.161426 14.0348 -0.161426 13.3833 0.488185L1.47132 12.4002L1.30899 12.5625C1.05775 12.8126 0.893361 13.1367 0.839987 13.4872L0.0149875 18.8299C-0.0352501 19.1205 0.0453696 19.4185 0.235288 19.6441C0.425206 19.8698 0.705051 20.0001 0.999987 20.0002C1.0553 20.0002 1.11051 19.9954 1.16499 19.9859L6.51265 19.1602C6.86298 19.1069 7.18697 18.9426 7.43699 18.6915L7.59899 18.5292L19.5117 6.61652C20.1625 5.96565 20.1625 4.91039 19.5117 4.25952L15.7407 0.488185ZM13.127 1.68819C13.5339 1.49302 14.0191 1.56942 14.3463 1.88019C14.6593 2.20892 14.7364 2.69697 14.54 3.10619L4.06665 13.5785C3.95828 12.8472 3.38604 12.2719 2.65532 12.1595L13.127 1.68819ZM16.4333 4.98019L5.95299 15.4589C5.84261 14.7297 5.27019 14.1574 4.54099 14.0472L15.02 3.56852C15.4252 3.36589 15.9146 3.44514 16.2351 3.7653C16.5556 4.08546 16.6355 4.57475 16.4333 4.98019ZM1.05699 19.3285C0.949223 19.3471 0.839208 19.3116 0.762587 19.2336C0.685965 19.1556 0.652483 19.0449 0.672988 18.9375L0.899987 17.4599C1.29506 17.5608 1.65524 17.7673 1.94199 18.0572C2.23234 18.3441 2.43917 18.7047 2.54032 19.1002L1.05699 19.3285ZM6.41099 18.5002L3.20299 18.9969C3.07863 18.4615 2.80519 17.9723 2.41432 17.5859C2.02792 17.195 1.5387 16.9215 1.00332 16.7972L1.49999 13.5892C1.53143 13.3788 1.62957 13.184 1.77999 13.0335L1.90199 12.9119C2.3086 12.7169 2.79339 12.7933 3.12032 13.1039C3.43946 13.444 3.5113 13.9477 3.29999 14.3635C3.23134 14.4925 3.25473 14.6512 3.35768 14.7549C3.46063 14.8586 3.61914 14.8832 3.74865 14.8155C4.16408 14.6037 4.66768 14.6744 5.00865 14.9925C5.32658 15.3327 5.39772 15.8355 5.18665 16.2505C5.11793 16.3797 5.14143 16.5385 5.2446 16.6422C5.34777 16.7459 5.5065 16.7702 5.63599 16.7022C6.05121 16.4904 6.55456 16.5612 6.89532 16.8792C7.20669 17.2069 7.28287 17.693 7.08665 18.1002L6.96532 18.2215C6.81513 18.3713 6.62083 18.469 6.41099 18.5002ZM7.36665 16.4075C7.11303 16.1497 6.78146 15.9828 6.42332 15.9325L16.8947 5.46019C17.3004 5.25181 17.7941 5.32861 18.1174 5.65035C18.4407 5.9721 18.5198 6.4655 18.3133 6.87218L7.84032 17.3449C7.79009 16.9887 7.62357 16.6592 7.36665 16.4075ZM19.0667 6.11552C19.0154 5.76087 18.849 5.43292 18.593 5.18219C18.2259 4.81166 17.707 4.63344 17.1897 4.70019C17.2537 4.18281 17.0756 3.66481 16.707 3.29618C16.3384 2.92755 15.8204 2.74948 15.303 2.81352C15.3696 2.29589 15.1911 1.77679 14.8203 1.40952C14.5698 1.1534 14.2417 0.987139 13.887 0.936519C14.2803 0.571917 14.8912 0.582506 15.2717 0.960519L19.0403 4.73085C19.4214 5.10996 19.4321 5.72325 19.0647 6.11552H19.0667Z" fill="#BDCAD8"/>
</svg>
