<svg width="25" height="25" viewBox="0 0 25 25" fill="none" xmlns="http://www.w3.org/2000/svg">
<g clip-path="url(#clip0)">
<path d="M12.7031 0.8125C9.52053 0.8125 6.46831 2.07681 4.21787 4.32725C1.96744 6.57768 0.703127 9.6299 0.703127 12.8125C0.701675 15.2283 1.42942 17.5883 2.79112 19.5837C4.15281 21.5792 6.08505 23.1172 8.33511 23.9965C8.16338 22.859 8.16338 21.7021 8.33511 20.5645L9.7511 14.5886C9.50758 14.0284 9.38493 13.4232 9.39112 12.8125C9.30126 12.1424 9.47684 11.4636 9.88037 10.9211C10.2839 10.3786 10.8834 10.0152 11.5511 9.90852C11.7646 9.9072 11.976 9.95109 12.1713 10.0374C12.3666 10.1236 12.5415 10.2503 12.6844 10.409C12.8272 10.5677 12.9348 10.7549 13.0001 10.9582C13.0653 11.1615 13.0868 11.3763 13.0631 11.5886C12.8487 12.942 12.5195 14.2748 12.0791 15.5725C12.0158 15.836 12.0145 16.1106 12.0752 16.3748C12.136 16.6389 12.2571 16.8854 12.4293 17.0948C12.6014 17.3041 12.8198 17.4706 13.0672 17.5813C13.3146 17.692 13.5844 17.7438 13.8552 17.7325C15.9912 17.7325 17.6231 15.4765 17.6231 12.2365C17.6238 11.5876 17.4928 10.9452 17.2382 10.3483C16.9836 9.75144 16.6106 9.21234 16.1418 8.76367C15.6729 8.31501 15.1179 7.9661 14.5104 7.73799C13.9029 7.50988 13.2554 7.40732 12.6071 7.43652C11.9044 7.40394 11.2024 7.51475 10.5439 7.76216C9.88534 8.00957 9.28405 8.38836 8.77661 8.87559C8.26918 9.36281 7.86624 9.94825 7.59229 10.5962C7.31834 11.2441 7.17907 11.941 7.18308 12.6445C7.19243 13.6258 7.50241 14.5807 8.07115 15.3805C8.09847 15.4323 8.11275 15.49 8.11275 15.5485C8.11275 15.6071 8.09847 15.6648 8.07115 15.7166L7.73511 17.0845C7.73511 17.3005 7.56715 17.3485 7.32715 17.2525C6.56329 16.7455 5.94172 16.0515 5.52166 15.2366C5.10159 14.4217 4.89698 13.5128 4.92715 12.5965C4.92209 11.5872 5.12921 10.5882 5.53521 9.66418C5.9412 8.74016 6.53698 7.91176 7.28379 7.23284C8.0306 6.55392 8.91184 6.0396 9.87027 5.72324C10.8287 5.40689 11.8429 5.29557 12.8471 5.39651C13.7924 5.34798 14.7377 5.49076 15.6264 5.81633C16.5152 6.14191 17.3291 6.64356 18.0193 7.29121C18.7096 7.93887 19.2619 8.7192 19.6434 9.58545C20.0248 10.4517 20.2274 11.3861 20.2391 12.3325C20.3315 13.2327 20.2431 14.1422 19.9791 15.0077C19.7151 15.8732 19.2808 16.6772 18.7018 17.3726C18.1227 18.0679 17.4105 18.6405 16.6071 19.0568C15.8036 19.473 14.9251 19.7245 14.0231 19.7965C13.4853 19.8176 12.9509 19.7035 12.4687 19.4645C11.9865 19.2255 11.572 18.8692 11.2631 18.4285L10.5191 21.2845C10.1617 22.3926 9.66146 23.4495 9.03113 24.4285C10.1819 24.7817 11.3793 24.9597 12.5831 24.9565C15.7657 24.9565 18.818 23.6923 21.0684 21.4418C23.3188 19.1914 24.5831 16.1391 24.5831 12.9565C24.6021 11.3786 24.3098 9.81248 23.7227 8.34773C23.1357 6.88298 22.2655 5.54842 21.162 4.42041C20.0585 3.2924 18.7434 2.39311 17.2919 1.77402C15.8404 1.15493 14.2811 0.828165 12.7031 0.8125Z" fill="white"/>
</g>
<defs>
<clipPath id="clip0">
<rect width="24" height="24" fill="white" transform="translate(0.703125 0.8125)"/>
</clipPath>
</defs>
</svg>
