<svg id="Layer_1" data-name="Layer 1" xmlns="http://www.w3.org/2000/svg" width="57.55" height="55.83" viewBox="0 0 57.55 55.83"><defs><style>.big-contact-1{fill:none;stroke:#3d4853;stroke-linecap:round;stroke-linejoin:round;stroke-width:2px;}</style></defs><title>big-contact</title><path class="big-contact-1" d="M260.72,303.7V287.62A10.66,10.66,0,0,1,271.35,277h34.3a10.66,10.66,0,0,1,10.63,10.63V303.7" transform="translate(-259.72 -264.74)"/><line class="big-contact-1" x1="32.55" y1="1" x2="32.55" y2="21.56"/><line class="big-contact-1" x1="32.55" y1="1" x2="41.49" y2="1"/><line class="big-contact-1" x1="32.55" y1="7.02" x2="41.49" y2="7.02"/><line class="big-contact-1" x1="41.49" y1="1" x2="41.49" y2="7.02"/><line class="big-contact-1" x1="1" y1="38.97" x2="56.55" y2="38.97"/><path class="big-contact-1" d="M260.72,303.7V287.62A10.66,10.66,0,0,1,271.35,277h1.09a10.66,10.66,0,0,1,10.63,10.63V303.7" transform="translate(-259.72 -264.74)"/><line class="big-contact-1" x1="7.74" y1="25.59" x2="16.6" y2="25.59"/><path class="big-contact-1" d="M267.47,290.33a4,4,0,0,1,4-4" transform="translate(-259.72 -264.74)"/><path class="big-contact-1" d="M276.32,290.33a4,4,0,0,0-4-4" transform="translate(-259.72 -264.74)"/><line class="big-contact-1" x1="23.34" y1="38.97" x2="23.34" y2="54.83"/><line class="big-contact-1" x1="31.91" y1="38.97" x2="31.91" y2="54.83"/><line class="big-contact-1" x1="23.34" y1="54.83" x2="31.91" y2="54.83"/><line class="big-contact-1" x1="28.78" y1="32.72" x2="51.54" y2="32.72"/><line class="big-contact-1" x1="28.78" y1="27.81" x2="51.54" y2="27.81"/><line class="big-contact-1" x1="11.78" y1="21.56" x2="12.56" y2="21.56"/></svg>