<svg width="64" height="64" viewBox="0 0 64 64" fill="none" xmlns="http://www.w3.org/2000/svg">
<path d="M27.3701 59.9001C27.2385 59.9008 27.1082 59.8756 26.9863 59.8258C26.8645 59.7761 26.7536 59.7027 26.6602 59.61L4.39014 37.3401C4.20389 37.1527 4.09961 36.8992 4.09961 36.635C4.09961 36.3709 4.20389 36.1174 4.39014 35.9301L31.9502 8.37006C32.0687 8.25159 32.2152 8.16479 32.376 8.11762C32.5367 8.07044 32.7064 8.06441 32.8701 8.10007L42.9502 10.29L51.1704 12.0701C51.3594 12.1103 51.5328 12.2044 51.6694 12.3411C51.8061 12.4777 51.9002 12.651 51.9404 12.8401L55.9404 31.14C55.9761 31.3037 55.97 31.4738 55.9229 31.6345C55.8757 31.7953 55.7889 31.9416 55.6704 32.0601L28.1104 59.6201C28.0125 59.7146 27.8963 59.7882 27.769 59.8364C27.6418 59.8845 27.506 59.9062 27.3701 59.9001ZM6.49023 36.6301L27.3403 57.48L53.8101 31.01L50.0903 13.8701L32.9502 10.1501L6.49023 36.6301Z" fill="#3D4853"/>
<path d="M44.1997 24.55C43.1008 24.5495 42.0361 24.1679 41.187 23.4703C40.3379 22.7728 39.7568 21.8024 39.543 20.7245C39.3291 19.6466 39.4957 18.5279 40.0141 17.5589C40.5326 16.59 41.3708 15.8309 42.3862 15.4108C43.4017 14.9907 44.5315 14.9357 45.583 15.2552C46.6344 15.5746 47.5427 16.2487 48.1528 17.1627C48.763 18.0767 49.0373 19.1739 48.9292 20.2675C48.8211 21.361 48.3369 22.3833 47.5596 23.16C47.1186 23.6015 46.5951 23.9515 46.0185 24.19C45.442 24.4286 44.8237 24.5509 44.1997 24.55ZM44.1997 17.04C43.5636 17.0425 42.9482 17.2655 42.458 17.6709C41.9678 18.0763 41.6335 18.6391 41.5117 19.2634C41.3899 19.8878 41.4882 20.535 41.79 21.0949C42.0919 21.6548 42.5785 22.0928 43.167 22.3342C43.7555 22.5757 44.4095 22.6056 45.0176 22.419C45.6257 22.2324 46.1502 21.8408 46.5019 21.3108C46.8537 20.7808 47.011 20.1452 46.9468 19.5124C46.8826 18.8796 46.6009 18.2886 46.1499 17.84C45.6303 17.3286 44.9287 17.0445 44.1997 17.05V17.04Z" fill="#3D4853"/>
<path d="M48.8001 22.6501C46.8108 22.6793 44.8819 21.9663 43.39 20.6501C43.2921 20.5621 43.2128 20.4557 43.1561 20.337C43.0994 20.2182 43.0664 20.0895 43.0594 19.9581C43.0524 19.8267 43.0717 19.6953 43.1156 19.5712C43.1594 19.4471 43.2273 19.3329 43.3153 19.2351C43.4033 19.1372 43.5095 19.0577 43.6283 19.001C43.747 18.9443 43.8758 18.9115 44.0072 18.9045C44.1386 18.8976 44.2698 18.9165 44.3939 18.9604C44.5179 19.0042 44.6325 19.0721 44.7303 19.1601C47.1903 21.3801 51.6502 20.9801 54.6502 18.2701L55.0599 17.8801C56.5904 16.4014 57.5773 14.4494 57.8602 12.3401C58.0194 11.4846 57.9676 10.6031 57.7098 9.77197C57.452 8.94081 56.996 8.18489 56.3807 7.56955C55.7654 6.95422 55.0092 6.49797 54.1781 6.2402C53.3469 5.98244 52.4657 5.93091 51.6102 6.09009C49.5009 6.37299 47.5489 7.35956 46.0702 8.89008C45.2452 9.71479 44.5687 10.6755 44.0702 11.7301C43.9561 11.9701 43.7512 12.155 43.5008 12.2441C43.2505 12.3332 42.9752 12.3191 42.7352 12.2051C42.4952 12.091 42.3101 11.8863 42.221 11.636C42.1319 11.3856 42.146 11.1101 42.2601 10.8701C42.8618 9.60651 43.6772 8.4563 44.6702 7.47009C46.4702 5.62111 48.8415 4.43371 51.4002 4.1001C52.5545 3.90739 53.7379 3.99308 54.8524 4.35007C55.9669 4.70706 56.9799 5.32499 57.8075 6.1525C58.635 6.98001 59.2532 7.99317 59.6102 9.10767C59.9672 10.2222 60.0529 11.4058 59.8602 12.5601C59.5273 15.1191 58.3397 17.4906 56.4901 19.2901L56.0101 19.7501C54.0452 21.5706 51.4783 22.603 48.8001 22.6501Z" fill="#3D4853"/>
<path d="M26.8101 41.9601C25.6501 41.9601 24.4135 41.9168 23.1002 41.8301C22.8589 41.8137 22.632 41.7105 22.461 41.5395C22.29 41.3685 22.1869 41.1414 22.1705 40.9001C21.6705 33.2901 22.6301 28.1601 25.0401 25.6401C26.0371 24.6073 27.3493 23.9353 28.7701 23.7301C29.4276 23.623 30.1014 23.6712 30.7369 23.8709C31.3724 24.0706 31.9522 24.4162 32.4303 24.8801C33.0462 25.5245 33.5271 26.2855 33.8448 27.1184C34.1625 27.9512 34.3107 28.8392 34.2804 29.7301C35.1713 29.6998 36.0593 29.8479 36.8922 30.1655C37.7251 30.4832 38.4861 30.9642 39.1305 31.5801C40.9605 33.4101 40.6302 36.7101 38.3902 38.9501C36.2802 40.9501 32.4001 41.9601 26.8101 41.9601ZM24.1104 39.8901C32.2304 40.3101 35.5906 38.8901 36.9806 37.5201C38.3706 36.1501 38.7303 34.0201 37.7003 32.9901C37.1117 32.4666 36.4102 32.0861 35.6505 31.8779C34.8908 31.6698 34.0936 31.6397 33.3204 31.7901C33.1691 31.8082 33.0155 31.7915 32.8717 31.7412C32.7278 31.6909 32.5974 31.6085 32.4903 31.5001C32.3819 31.393 32.2994 31.2625 32.2491 31.1187C32.1988 30.9748 32.1822 30.8214 32.2003 30.6701C32.3499 29.8969 32.3195 29.0996 32.1114 28.3401C31.9033 27.5805 31.5229 26.8791 31.0001 26.2901C30.7341 26.0456 30.4154 25.866 30.0684 25.7654C29.7215 25.6647 29.3556 25.6458 29.0001 25.7101C28.0276 25.8562 27.1311 26.3204 26.4503 27.0301C25.1503 28.4301 23.6904 31.7701 24.1104 39.8901Z" fill="#3D4853"/>
</svg>
