<svg width="20" height="21" viewBox="0 0 20 21" fill="none" xmlns="http://www.w3.org/2000/svg">
<g clip-path="url(#clip0)">
<path d="M8.34772 16.73C6.72054 16.7047 5.13706 16.1927 3.7962 15.2583C2.45533 14.3239 1.41688 13.0088 0.811412 11.4783C0.20594 9.94771 0.0604217 8.26991 0.393126 6.6558C0.72583 5.0417 1.52188 3.56319 2.68133 2.40613C3.84078 1.24906 5.31199 0.465048 6.90987 0.152547C8.50775 -0.159953 10.1611 0.0131379 11.6622 0.649862C13.1634 1.28659 14.4453 2.35875 15.347 3.73145C16.2486 5.10414 16.7298 6.71614 16.73 8.36507C16.7118 10.6002 15.8187 12.7365 14.247 14.3049C12.6754 15.8734 10.5536 16.7455 8.34772 16.73ZM8.34772 2.32182C7.17609 2.34708 6.03792 2.72196 5.07579 3.3999C4.11366 4.07784 3.37044 5.02844 2.93924 6.13257C2.50805 7.2367 2.40802 8.4452 2.65181 9.60665C2.89561 10.7681 3.4723 11.831 4.30964 12.6617C5.14697 13.4925 6.20765 14.0542 7.35879 14.2767C8.50993 14.4993 9.70033 14.3728 10.7807 13.9127C11.8611 13.4527 12.7834 12.6797 13.4321 11.6908C14.0808 10.7018 14.4269 9.54082 14.4272 8.35339C14.406 6.73917 13.7542 5.19929 12.6148 4.07096C11.4753 2.94263 9.9409 2.31792 8.34772 2.3335V2.32182Z" fill="#3D4853"/>
<path d="M18.8487 21.0002C18.5466 20.9989 18.2572 20.8773 18.0428 20.6618L12.1935 14.8285C11.9752 14.6119 11.8507 14.3163 11.8475 14.0067C11.8442 13.6971 11.9625 13.3988 12.1762 13.1776C12.39 12.9564 12.6818 12.8303 12.9874 12.827C13.2929 12.8237 13.5872 12.9433 13.8055 13.1599L19.6546 18.9933C19.8203 19.1551 19.9345 19.3636 19.9821 19.5917C20.0298 19.8198 20.0089 20.0573 19.9221 20.2733C19.8354 20.4893 19.6867 20.6738 19.4954 20.8034C19.3041 20.9329 19.0788 21.0016 18.8487 21.0002Z" fill="#3D4853"/>
</g>
<defs>
<clipPath id="clip0">
<rect width="20" height="21" fill="white"/>
</clipPath>
</defs>
</svg>
