<svg width="16" height="14" viewBox="0 0 16 14" fill="none" xmlns="http://www.w3.org/2000/svg">
<path d="M15.4249 4.6675L14.6374 1.39C14.4724 0.715 13.8874 0.25 13.2049 0.25H2.78738C2.11238 0.25 1.51988 0.7225 1.36238 1.39L0.574883 4.6675C0.394883 5.4325 0.559883 6.2125 1.03988 6.8275C1.09988 6.91 1.18238 6.97 1.24988 7.045V12.25C1.24988 13.075 1.92488 13.75 2.74988 13.75H13.2499C14.0749 13.75 14.7499 13.075 14.7499 12.25V7.045C14.8174 6.9775 14.8999 6.91 14.9599 6.835C15.4399 6.22 15.6124 5.4325 15.4249 4.6675ZM13.1824 1.7425L13.9699 5.02C14.0449 5.335 13.9774 5.65 13.7824 5.8975C13.6774 6.0325 13.4524 6.25 13.0774 6.25C12.6199 6.25 12.2224 5.8825 12.1699 5.395L11.7349 1.75L13.1824 1.7425ZM8.74988 1.75H10.2199L10.6249 5.14C10.6624 5.4325 10.5724 5.725 10.3774 5.9425C10.2124 6.1375 9.97238 6.25 9.66488 6.25C9.16238 6.25 8.74988 5.8075 8.74988 5.2675V1.75ZM5.36738 5.14L5.77988 1.75H7.24988V5.2675C7.24988 5.8075 6.83738 6.25 6.28238 6.25C6.02738 6.25 5.79488 6.1375 5.61488 5.9425C5.42738 5.725 5.33738 5.4325 5.36738 5.14ZM2.02988 5.02L2.78738 1.75H4.26488L3.82988 5.395C3.76988 5.8825 3.37988 6.25 2.92238 6.25C2.55488 6.25 2.32238 6.0325 2.22488 5.8975C2.02238 5.6575 1.95488 5.335 2.02988 5.02ZM2.74988 12.25V7.7275C2.80988 7.735 2.86238 7.75 2.92238 7.75C3.57488 7.75 4.16738 7.48 4.60238 7.0375C5.05238 7.4875 5.65238 7.75 6.33488 7.75C6.98738 7.75 7.57238 7.48 8.00738 7.0525C8.44988 7.48 9.04988 7.75 9.72488 7.75C10.3549 7.75 10.9549 7.4875 11.4049 7.0375C11.8399 7.48 12.4324 7.75 13.0849 7.75C13.1449 7.75 13.1974 7.735 13.2574 7.7275V12.25H2.74988Z" fill="white"/>
</svg>
