<svg width="22" height="20" viewBox="0 0 22 20" fill="none" xmlns="http://www.w3.org/2000/svg">
<path d="M3.42288 8.88181V19.0872V8.88181ZM3.42288 19.0872H18.4852H3.42288ZM18.4852 19.0872V8.88181V19.0872ZM8.43752 19.0872V14.2492C8.43752 13.5859 8.70314 12.9497 9.17594 12.4806C9.64874 12.0116 10.29 11.7481 10.9586 11.7481C11.6273 11.7481 12.2685 12.0116 12.7413 12.4806C13.2141 12.9497 13.4798 13.5859 13.4798 14.2492V19.0872H8.43752ZM0.929367 3.37747V6.11595C0.968152 6.75198 1.25017 7.34935 1.71785 7.7861C2.18553 8.22286 2.8036 8.46606 3.44589 8.46606C4.08818 8.46606 4.70625 8.22286 5.17393 7.7861C5.64161 7.34935 5.92362 6.75198 5.96241 6.11595C5.96241 6.77929 6.22803 7.41546 6.70083 7.88452C7.17363 8.35357 7.81489 8.61709 8.48353 8.61709C9.15217 8.61709 9.79343 8.35357 10.2662 7.88452C10.739 7.41546 11.0047 6.77929 11.0047 6.11595C11.0047 6.77929 11.2703 7.41546 11.7431 7.88452C12.2159 8.35357 12.8571 8.61709 13.5258 8.61709C14.1944 8.61709 14.8357 8.35357 15.3085 7.88452C15.7813 7.41546 16.0469 6.77929 16.0469 6.11595C16.0469 6.77929 16.3125 7.41546 16.7853 7.88452C17.2581 8.35357 17.8994 8.61709 18.568 8.61709C19.2367 8.61709 19.8779 8.35357 20.3507 7.88452C20.8235 7.41546 21.0891 6.77929 21.0891 6.11595V3.37747H0.929367ZM5.96241 6.12507V4.2903V6.12507ZM11.0231 6.12507V4.2903V6.12507ZM16.0377 6.12507V4.2903V6.12507ZM0.920166 3.39573L3.42288 0.912842L0.920166 3.39573ZM21.0799 3.39573L18.5772 0.912842L21.0799 3.39573ZM3.42288 0.912842H18.5772H3.42288Z" fill="black"/>
</svg>
