<svg id="Layer_1" data-name="Layer 1" xmlns="http://www.w3.org/2000/svg" viewBox="0 0 139 48"><defs><style>.supply-logo{fill:#3d4853;}</style></defs><title>supply-logo</title><path class="supply-logo" d="M3594.63,696.23h1.87c0,6.33,4,7.87,7,7.87,2.59,0,5.23-1.3,5.23-4.25,0-7.53-14.82-7.29-14.82-17.58,0-5.17,3.79-9.13,11.27-9.13a60.79,60.79,0,0,1,8.59.92l-1.58,8h-1.87c0.1-3.67-1.29-6.52-5.52-6.52-3.21,0-5.23,1.64-5.23,4.2,0,7.63,14.82,6.76,14.82,17.48,0,6.23-5,9.27-11.13,9.27-4.32,0-9.88-1.35-10-4.93C3593.19,701.06,3593.33,700,3594.63,696.23Z" transform="translate(-3593.19 -669.82)"/><path class="supply-logo" d="M3619.69,690c0-2.08,0-3.28-1.44-3.28h-1.44v-1.59c8.2-1.45,9.31-1.93,9.31-1.93l0.14,0.14a19.33,19.33,0,0,0-.43,5.07v9.8c0,3.48,1.15,4.35,2.73,4.35,2.4,0,4.8-2.22,4.8-2.22V690c0-2.08,0-3.28-1.44-3.28h-1.2V685c7.87-1.4,9.07-1.88,9.07-1.88l0.14,0.14a19.33,19.33,0,0,0-.43,5.07v12.75c0,2.75,1.1,2.75,2.69,2.75h1.1l-0.14,1.55c-6.43.53-9.69,1-9.69,1l-0.1-.1a14,14,0,0,0,.34-2.66v-2s-3.21,4.93-8,4.93c-3.45,0-6-1.88-6-6.52V690Z" transform="translate(-3593.19 -669.82)"/><path class="supply-logo" d="M3644.93,716.18c2-1.21,2.26-2.46,2.26-4.68V689.86c0-2,0-3.19-1.44-3.19h-1.68v-1.55a57.71,57.71,0,0,0,9.45-2.41l0.14,0.14a20.28,20.28,0,0,0-.53,4.2c2.11-2.8,4.27-3.67,6.52-3.67,5.09,0,8.68,4.54,8.68,10.29,0,6.28-4.32,12.84-12.47,12.84a16.37,16.37,0,0,1-2.54-.19v5.12a17.17,17.17,0,0,1-.24,2.75h4.8l-0.19,1.4a125.46,125.46,0,0,0-12.76,2.22v-1.64Zm17-20.62c0-3.81-1.44-8.21-5.23-8.21a8.15,8.15,0,0,0-3.41,1v13.28c0,2.17,1.34,2.46,2.45,2.46C3659.94,704.06,3662,700.1,3662,695.56Z" transform="translate(-3593.19 -669.82)"/><path class="supply-logo" d="M3671.06,716.18c2-1.21,2.25-2.46,2.25-4.68V689.86c0-2,0-3.19-1.44-3.19h-1.68v-1.55a57.77,57.77,0,0,0,9.45-2.41l0.14,0.14a20.16,20.16,0,0,0-.53,4.2c2.11-2.8,4.27-3.67,6.53-3.67,5.08,0,8.68,4.54,8.68,10.29,0,6.28-4.32,12.84-12.47,12.84a16.4,16.4,0,0,1-2.54-.19v5.12a17.17,17.17,0,0,1-.24,2.75h4.8l-0.19,1.4a125.36,125.36,0,0,0-12.76,2.22v-1.64Zm17-20.62c0-3.81-1.44-8.21-5.23-8.21a8.16,8.16,0,0,0-3.41,1v13.28c0,2.17,1.34,2.46,2.45,2.46C3686.07,704.06,3688.09,700.1,3688.09,695.56Z" transform="translate(-3593.19 -669.82)"/><path class="supply-logo" d="M3696.65,704.44a2.8,2.8,0,0,0,2.73-3.14V677c0-2,0-3.19-1.44-3.19h-1.78v-1.55c7.68-1.55,9.69-2.46,9.69-2.46L3706,670a22.93,22.93,0,0,0-.48,5.46V701.3a14.22,14.22,0,0,1-.24,2.61l3.84,0.43-0.19,1.45-12.28.29v-1.64Z" transform="translate(-3593.19 -669.82)"/><path class="supply-logo" d="M3719.43,708l0.43-1.06c-0.29-.87-0.86-2.32-1.49-3.82l-6.48-14.92a4.54,4.54,0,0,0-2.78-2.8V684h2.26c4.27,0,7-.19,7-0.19l0.19,0.19a6.15,6.15,0,0,0-.1,4.44l3.5,8.6a28.24,28.24,0,0,1,.91,2.85l4.65-11c0.72-1.88-.86-3-2.64-3.48V684h7.05l0.24,0.77a8.21,8.21,0,0,0-1.54,2.56l-7.24,17c-1.78,4.06-5,13-10.6,13a2.4,2.4,0,0,1-2.64-2.46c0-1.16.77-2.46,3.17-2.46C3716.31,712.46,3718.13,711.06,3719.43,708Z" transform="translate(-3593.19 -669.82)"/></svg>