<svg width="24" height="58" viewBox="0 0 24 58" fill="none" xmlns="http://www.w3.org/2000/svg">
<path fill-rule="evenodd" clip-rule="evenodd" d="M23.2474 31.4288L4.29436 57.0213C3.82088 57.6606 3.17878 58.0198 2.50918 58.0198C1.83959 58.0198 1.19732 57.6606 0.723843 57.0213C0.250369 56.3819 -0.015625 55.5149 -0.015625 54.6107C-0.015625 53.7066 0.250369 52.8395 0.723843 52.2002L17.9051 29.0364L0.723843 5.87256C0.250369 5.23322 -0.015625 4.36617 -0.015625 3.46201C-0.015625 2.55785 0.250369 1.69058 0.723843 1.05125C1.19732 0.411909 1.83959 0.0527344 2.50918 0.0527344C3.17878 0.0527344 3.82088 0.411909 4.29436 1.05125L23.2474 26.6437C23.713 27.2813 23.9741 28.1409 23.9741 29.0364C23.9741 29.9318 23.713 30.7912 23.2474 31.4288Z" fill="#BDCAD8"/>
</svg>
