<svg width="24" height="58" viewBox="0 0 24 58" fill="none" xmlns="http://www.w3.org/2000/svg">
<path fill-rule="evenodd" clip-rule="evenodd" d="M0.752625 26.5712L19.7056 0.978741C20.1791 0.339405 20.8212 -0.0197716 21.4908 -0.0197716C22.1604 -0.0197716 22.8027 0.339405 23.2762 0.978741C23.7496 1.61808 24.0156 2.48513 24.0156 3.38929C24.0156 4.29345 23.7496 5.1605 23.2762 5.79983L6.09488 28.9636L23.2762 52.1274C23.7496 52.7668 24.0156 53.6338 24.0156 54.538C24.0156 55.4421 23.7496 56.3094 23.2762 56.9488C22.8027 57.5881 22.1604 57.9473 21.4908 57.9473C20.8212 57.9473 20.1791 57.5881 19.7056 56.9488L0.752625 31.3563C0.287018 30.7187 0.025938 29.8591 0.025938 28.9636C0.025938 28.0682 0.287018 27.2088 0.752625 26.5712Z" fill="#BDCAD8"/>
</svg>
