<svg width="19" height="24" viewBox="0 0 19 24" fill="none" xmlns="http://www.w3.org/2000/svg">
<path d="M7.90618 9.84478C9.31059 9.84478 10.4491 8.03691 10.4491 5.80679C10.4491 3.57667 9.31059 1.7688 7.90618 1.7688C6.50178 1.7688 5.36328 3.57667 5.36328 5.80679C5.36328 8.03691 6.50178 9.84478 7.90618 9.84478Z" stroke="#3D4853" stroke-width="2" stroke-linecap="round" stroke-linejoin="round"/>
<path d="M5.36268 5.80688H1.02539" stroke="#3D4853" stroke-width="2" stroke-linecap="round" stroke-linejoin="round"/>
<path d="M10.4492 5.80688H17.9754" stroke="#3D4853" stroke-width="2" stroke-linecap="round" stroke-linejoin="round"/>
<path d="M13.2675 22.5123C14.6719 22.5123 15.8104 20.7044 15.8104 18.4743C15.8104 16.2442 14.6719 14.4363 13.2675 14.4363C11.8631 14.4363 10.7246 16.2442 10.7246 18.4743C10.7246 20.7044 11.8631 22.5123 13.2675 22.5123Z" stroke="#3D4853" stroke-width="2" stroke-linecap="round" stroke-linejoin="round"/>
<path d="M15.8105 18.4744H17.9741" stroke="#3D4853" stroke-width="2" stroke-linecap="round" stroke-linejoin="round"/>
<path d="M10.7253 18.4744H1.02539" stroke="#3D4853" stroke-width="2" stroke-linecap="round" stroke-linejoin="round"/>
</svg>
