<svg width="64" height="64" viewBox="0 0 64 64" fill="none" xmlns="http://www.w3.org/2000/svg">
<path d="M2.10059 46.33C1.83537 46.33 1.58109 46.2246 1.39355 46.0371C1.20602 45.8495 1.10059 45.5952 1.10059 45.33V11.97C1.10059 11.7048 1.20602 11.4504 1.39355 11.2629C1.58109 11.0753 1.83537 10.97 2.10059 10.97C2.3658 10.97 2.62008 11.0753 2.80762 11.2629C2.99515 11.4504 3.10059 11.7048 3.10059 11.97V45.31C3.10325 45.443 3.07934 45.5751 3.03027 45.6988C2.98121 45.8224 2.90807 45.935 2.81494 46.03C2.72182 46.125 2.61044 46.2005 2.48779 46.252C2.36515 46.3035 2.23361 46.33 2.10059 46.33Z" fill="#3D4853"/>
<path d="M33.7505 12.97H2.10059C1.83537 12.97 1.58109 12.8646 1.39355 12.6771C1.20602 12.4895 1.10059 12.2352 1.10059 11.97C1.10059 11.7048 1.20602 11.4504 1.39355 11.2629C1.58109 11.0753 1.83537 10.97 2.10059 10.97H33.7505C34.0157 10.97 34.27 11.0753 34.4575 11.2629C34.6451 11.4504 34.7505 11.7048 34.7505 11.97C34.7505 12.2352 34.6451 12.4895 34.4575 12.6771C34.27 12.8646 34.0157 12.97 33.7505 12.97Z" fill="#3D4853"/>
<path d="M33.75 46.33C33.4848 46.33 33.2305 46.2246 33.043 46.0371C32.8554 45.8495 32.75 45.5952 32.75 45.33V11.97C32.75 11.7048 32.8554 11.4504 33.043 11.2629C33.2305 11.0753 33.4848 10.97 33.75 10.97C34.0152 10.97 34.2695 11.0753 34.457 11.2629C34.6446 11.4504 34.75 11.7048 34.75 11.97V45.31C34.7527 45.443 34.7287 45.5751 34.6797 45.6988C34.6306 45.8224 34.5575 45.935 34.4644 46.03C34.3712 46.125 34.2599 46.2005 34.1372 46.252C34.0146 46.3035 33.883 46.33 33.75 46.33Z" fill="#3D4853"/>
<path d="M23.8403 46.53C23.6389 46.5294 23.4423 46.468 23.2764 46.3538C23.1104 46.2396 22.9832 46.078 22.9106 45.8901C22.3825 44.5165 21.4514 43.3346 20.2397 42.4994C19.028 41.6642 17.5922 41.2148 16.1206 41.21C14.6609 41.2035 13.2332 41.6397 12.0264 42.4609C10.8195 43.2821 9.89004 44.4498 9.36035 45.81C9.2559 46.0456 9.06456 46.2318 8.82617 46.3298C8.58778 46.4277 8.32096 46.4298 8.08105 46.3356C7.84115 46.2415 7.64672 46.0583 7.53857 45.8244C7.43042 45.5905 7.41681 45.3238 7.50049 45.08C8.17564 43.345 9.36057 41.8553 10.8994 40.8074C12.4383 39.7595 14.2589 39.2026 16.1206 39.21C18.0012 39.2185 19.835 39.7962 21.3809 40.8673C22.9267 41.9383 24.1117 43.4523 24.7803 45.21C24.8309 45.3599 24.8454 45.5196 24.8223 45.6761C24.7992 45.8325 24.7392 45.9813 24.6475 46.1102C24.5557 46.239 24.4347 46.3442 24.2944 46.4172C24.1541 46.4902 23.9985 46.5289 23.8403 46.53Z" fill="#3D4853"/>
<path d="M55.5704 46.53C55.369 46.5294 55.1724 46.468 55.0064 46.3538C54.8405 46.2396 54.7132 46.078 54.6407 45.8901C54.1126 44.5165 53.1815 43.3346 51.9698 42.4994C50.7581 41.6642 49.3223 41.2148 47.8507 41.21C46.391 41.2035 44.9633 41.6397 43.7564 42.4609C42.5496 43.2821 41.6201 44.4498 41.0904 45.81C41.0466 45.9377 40.9777 46.0552 40.8873 46.1553C40.7969 46.2555 40.6871 46.3364 40.5645 46.393C40.442 46.4497 40.3093 46.4809 40.1744 46.4849C40.0395 46.4889 39.905 46.4655 39.7794 46.4162C39.6538 46.3669 39.5391 46.2927 39.443 46.198C39.3468 46.1033 39.2711 45.9902 39.2198 45.8653C39.1685 45.7405 39.1428 45.6065 39.1446 45.4716C39.1465 45.3366 39.1759 45.2034 39.2306 45.08C39.9057 43.345 41.0906 41.8553 42.6295 40.8074C44.1683 39.7595 45.9889 39.2026 47.8507 39.21C49.7313 39.2185 51.5651 39.7962 53.1109 40.8673C54.6568 41.9383 55.8418 43.4523 56.5103 45.21C56.561 45.3599 56.5754 45.5196 56.5523 45.6761C56.5292 45.8325 56.4693 45.9813 56.3775 46.1102C56.2858 46.239 56.1648 46.3442 56.0245 46.4172C55.8842 46.4902 55.7286 46.5289 55.5704 46.53Z" fill="#3D4853"/>
<path d="M8.43066 46.4299H2.10059C1.83537 46.4299 1.58109 46.3246 1.39355 46.1371C1.20602 45.9495 1.10059 45.6951 1.10059 45.4299C1.10059 45.1647 1.20602 44.9104 1.39355 44.7228C1.58109 44.5353 1.83537 44.4299 2.10059 44.4299H8.43066C8.69588 44.4299 8.95016 44.5353 9.1377 44.7228C9.32523 44.9104 9.43066 45.1647 9.43066 45.4299C9.43066 45.6951 9.32523 45.9495 9.1377 46.1371C8.95016 46.3246 8.69588 46.4299 8.43066 46.4299Z" fill="#3D4853"/>
<path d="M61.9004 46.4299H55.5703C55.3051 46.4299 55.0508 46.3246 54.8633 46.1371C54.6757 45.9495 54.5703 45.6951 54.5703 45.4299C54.5703 45.1647 54.6757 44.9104 54.8633 44.7228C55.0508 44.5353 55.3051 44.4299 55.5703 44.4299H61.9004C62.1656 44.4299 62.4199 44.5353 62.6074 44.7228C62.795 44.9104 62.9004 45.1647 62.9004 45.4299C62.9004 45.6951 62.795 45.9495 62.6074 46.1371C62.4199 46.3246 62.1656 46.4299 61.9004 46.4299Z" fill="#3D4853"/>
<path d="M39.8506 46.53H23.8506C23.5854 46.53 23.3311 46.4247 23.1436 46.2372C22.956 46.0496 22.8506 45.7952 22.8506 45.53C22.8506 45.2648 22.956 45.0105 23.1436 44.8229C23.3311 44.6354 23.5854 44.53 23.8506 44.53H39.8506C40.1158 44.53 40.3701 44.6354 40.5576 44.8229C40.7452 45.0105 40.8506 45.2648 40.8506 45.53C40.8506 45.7952 40.7452 46.0496 40.5576 46.2372C40.3701 46.4247 40.1158 46.53 39.8506 46.53Z" fill="#3D4853"/>
<path d="M61.9004 46.43C61.6352 46.43 61.3809 46.3247 61.1934 46.1371C61.0058 45.9496 60.9004 45.6952 60.9004 45.43V37.28C60.9004 37.0148 61.0058 36.7605 61.1934 36.5729C61.3809 36.3854 61.6352 36.28 61.9004 36.28C62.1656 36.28 62.4199 36.3854 62.6074 36.5729C62.795 36.7605 62.9004 37.0148 62.9004 37.28V45.43C62.9004 45.6952 62.795 45.9496 62.6074 46.1371C62.4199 46.3247 62.1656 46.43 61.9004 46.43Z" fill="#3D4853"/>
<path d="M54.48 29.36H54.4199C54.1564 29.3445 53.9095 29.2254 53.7334 29.0287C53.5573 28.832 53.4663 28.5737 53.48 28.31C53.48 28.26 53.7301 23.31 51.3501 20.75C50.9021 20.2809 50.3588 19.9132 49.7568 19.6717C49.1548 19.4302 48.5078 19.3205 47.8599 19.35H33.75C33.4848 19.35 33.2305 19.2446 33.043 19.0571C32.8554 18.8696 32.75 18.6152 32.75 18.35C32.75 18.0848 32.8554 17.8304 33.043 17.6429C33.2305 17.4554 33.4848 17.35 33.75 17.35H47.8599C48.7777 17.3166 49.6921 17.4775 50.5435 17.8222C51.3948 18.1669 52.1637 18.6875 52.7998 19.35C55.7998 22.49 55.4797 28.15 55.4697 28.35C55.471 28.4813 55.4465 28.6116 55.3975 28.7335C55.3484 28.8553 55.276 28.9663 55.1841 29.0601C55.0922 29.1539 54.9826 29.2286 54.8618 29.2801C54.741 29.3315 54.6113 29.3587 54.48 29.36Z" fill="#3D4853"/>
<path d="M61.9004 38.2899C61.6352 38.2899 61.3809 38.1845 61.1934 37.997C61.0058 37.8094 60.9004 37.5551 60.9004 37.2899C60.9004 32.9199 58.0205 29.3699 54.4805 29.3699C54.2153 29.3699 53.961 29.2645 53.7734 29.077C53.5859 28.8895 53.4805 28.6351 53.4805 28.3699C53.4805 28.1047 53.5859 27.8503 53.7734 27.6628C53.961 27.4752 54.2153 27.3699 54.4805 27.3699C59.1205 27.3699 62.9004 31.8199 62.9004 37.2899C62.9004 37.5551 62.795 37.8094 62.6074 37.997C62.4199 38.1845 62.1656 38.2899 61.9004 38.2899Z" fill="#3D4853"/>
<path d="M9.07031 38.29H2.07031C1.8051 38.29 1.55082 38.1847 1.36328 37.9971C1.17574 37.8096 1.07031 37.5553 1.07031 37.29C1.07031 37.0248 1.17574 36.7705 1.36328 36.5829C1.55082 36.3954 1.8051 36.29 2.07031 36.29H9.07031C9.33553 36.29 9.58981 36.3954 9.77734 36.5829C9.96488 36.7705 10.0703 37.0248 10.0703 37.29C10.0703 37.5553 9.96488 37.8096 9.77734 37.9971C9.58981 38.1847 9.33553 38.29 9.07031 38.29Z" fill="#3D4853"/>
<path d="M61.9004 38.29H54.9004C54.6352 38.29 54.3809 38.1847 54.1934 37.9971C54.0058 37.8096 53.9004 37.5553 53.9004 37.29C53.9004 37.0248 54.0058 36.7705 54.1934 36.5829C54.3809 36.3954 54.6352 36.29 54.9004 36.29H61.9004C62.1656 36.29 62.4199 36.3954 62.6074 36.5829C62.795 36.7705 62.9004 37.0248 62.9004 37.29C62.9004 37.5553 62.795 37.8096 62.6074 37.9971C62.4199 38.1847 62.1656 38.29 61.9004 38.29Z" fill="#3D4853"/>
<path d="M47.8605 52.9701C46.7454 52.9693 45.6653 52.5819 44.8038 51.8738C43.9424 51.1658 43.3527 50.181 43.1359 49.0872C42.9191 47.9934 43.0886 46.8583 43.6149 45.8752C44.1411 44.8921 44.9916 44.1219 46.0221 43.6958C47.0526 43.2697 48.1989 43.2141 49.2657 43.5385C50.3326 43.8628 51.2542 44.547 51.8732 45.4745C52.4922 46.402 52.7707 47.5154 52.6608 48.6251C52.5509 49.7348 52.0595 50.772 51.2706 51.5601C50.8237 52.0089 50.292 52.3646 49.7067 52.6066C49.1213 52.8486 48.4939 52.9722 47.8605 52.9701ZM47.8605 45.3301C47.3031 45.3297 46.7583 45.4945 46.2946 45.8037C45.8308 46.1129 45.469 46.5527 45.255 47.0674C45.041 47.5821 44.9841 48.1487 45.0919 48.6956C45.1997 49.2425 45.4671 49.7451 45.8605 50.1401C46.3985 50.6559 47.1151 50.9439 47.8605 50.9439C48.6059 50.9439 49.3224 50.6559 49.8605 50.1401C50.2404 49.7433 50.4962 49.2441 50.5963 48.7039C50.6965 48.1637 50.6369 47.6061 50.4244 47.0994C50.212 46.5928 49.856 46.1592 49.4005 45.852C48.9451 45.5447 48.4098 45.3773 47.8605 45.3701V45.3301Z" fill="#3D4853"/>
<path d="M16.1408 52.9701C15.0258 52.9693 13.9452 52.5819 13.0837 51.8738C12.2222 51.1658 11.633 50.181 11.4162 49.0872C11.1994 47.9934 11.3685 46.8583 11.8947 45.8752C12.421 44.8921 13.272 44.1219 14.3025 43.6958C15.3329 43.2697 16.4792 43.2141 17.5461 43.5385C18.613 43.8628 19.5346 44.547 20.1535 45.4745C20.7725 46.402 21.0505 47.5154 20.9406 48.6251C20.8308 49.7348 20.3394 50.772 19.5505 51.5601C19.1036 52.0089 18.5724 52.3646 17.987 52.6066C17.4017 52.8486 16.7742 52.9722 16.1408 52.9701ZM16.1408 45.3301C15.5834 45.3297 15.0382 45.4945 14.5744 45.8037C14.1106 46.1129 13.7489 46.5527 13.5349 47.0674C13.3209 47.5821 13.264 48.1487 13.3718 48.6956C13.4796 49.2425 13.7475 49.7451 14.1408 50.1401C14.6789 50.6559 15.3955 50.9439 16.1408 50.9439C16.8862 50.9439 17.6028 50.6559 18.1408 50.1401C18.5208 49.7433 18.7765 49.2441 18.8767 48.7039C18.9768 48.1637 18.9167 47.6061 18.7043 47.0994C18.4919 46.5928 18.1363 46.1592 17.6809 45.852C17.2254 45.5447 16.6902 45.3773 16.1408 45.3701V45.3301Z" fill="#3D4853"/>
<path d="M54.4805 29.3601H43.0605C42.7953 29.3601 42.5411 29.2547 42.3535 29.0672C42.166 28.8797 42.0605 28.6253 42.0605 28.3601C42.0605 28.0949 42.166 27.8405 42.3535 27.653C42.5411 27.4654 42.7953 27.3601 43.0605 27.3601H54.4805C54.7457 27.3601 55 27.4654 55.1875 27.653C55.375 27.8405 55.4805 28.0949 55.4805 28.3601C55.4805 28.6253 55.375 28.8797 55.1875 29.0672C55 29.2547 54.7457 29.3601 54.4805 29.3601Z" fill="#3D4853"/>
<path d="M43.0498 29.3601C42.7846 29.3601 42.5303 29.2547 42.3428 29.0672C42.1552 28.8797 42.0498 28.6253 42.0498 28.3601V18.3601C42.0498 18.0949 42.1552 17.8405 42.3428 17.653C42.5303 17.4654 42.7846 17.3601 43.0498 17.3601C43.315 17.3601 43.5693 17.4654 43.7568 17.653C43.9444 17.8405 44.0498 18.0949 44.0498 18.3601V28.3601C44.0498 28.6253 43.9444 28.8797 43.7568 29.0672C43.5693 29.2547 43.315 29.3601 43.0498 29.3601Z" fill="#3D4853"/>
</svg>
