<svg width="35" height="28" viewBox="0 0 35 28" fill="none" xmlns="http://www.w3.org/2000/svg">
<path d="M35 3.31477C33.6984 3.87692 32.3116 4.24954 30.8656 4.43046C32.3531 3.556 33.4884 2.18185 34.0222 0.525538C32.6353 1.33969 31.1041 1.91477 29.4722 2.23569C28.1553 0.855077 26.2784 0 24.2309 0C20.2584 0 17.0603 3.17477 17.0603 7.06677C17.0603 7.62677 17.1084 8.16523 17.2266 8.67785C11.2612 8.39139 5.98281 5.57631 2.43687 1.288C1.81781 2.34554 1.45469 3.556 1.45469 4.85908C1.45469 7.30585 2.73438 9.47477 4.64187 10.7305C3.48906 10.7089 2.35812 10.3794 1.4 9.86031C1.4 9.88185 1.4 9.90985 1.4 9.93785C1.4 13.3711 3.88719 16.2228 7.14875 16.8797C6.56469 17.0369 5.92812 17.1123 5.2675 17.1123C4.80813 17.1123 4.34437 17.0865 3.90906 16.9917C4.83875 19.7895 7.47688 21.8465 10.6138 21.9132C8.1725 23.7935 5.07281 24.9265 1.71719 24.9265C1.12875 24.9265 0.564375 24.9006 0 24.8295C3.17844 26.8477 6.94531 28 11.0075 28C24.2113 28 31.43 17.2308 31.43 7.896C31.43 7.58369 31.4191 7.28215 31.4037 6.98277C32.8278 5.98769 34.0244 4.74492 35 3.31477Z" fill="#03A9F4"/>
</svg>
