<svg width="25" height="25" viewBox="0 0 25 25" fill="none" xmlns="http://www.w3.org/2000/svg">
<g clip-path="url(#clip0)">
<path d="M24.7032 3.64662C23.8029 4.13383 22.8483 4.45228 21.8712 4.59129C22.8995 3.82929 23.6672 2.63315 24.0312 1.22602C23.067 1.93278 22.0119 2.43195 20.9112 2.70204C20.4548 2.08837 19.8982 1.60021 19.2778 1.26954C18.6575 0.938865 17.9873 0.773072 17.3112 0.783148C16.0063 0.783148 14.7549 1.42074 13.8322 2.55565C12.9095 3.69055 12.3912 5.22986 12.3912 6.83486C12.3878 7.30148 12.428 7.76703 12.5112 8.22232C10.5534 8.10444 8.63763 7.48102 6.88856 6.39262C5.13949 5.30421 3.59626 3.77516 2.35919 1.90493C1.92778 2.799 1.69597 3.81734 1.68719 4.85696C1.68474 5.85462 1.88283 6.83756 2.26387 7.71827C2.64491 8.59899 3.19709 9.35021 3.8712 9.905C3.0874 9.87724 2.32105 9.61369 1.63918 9.13744C1.64505 10.5321 2.04238 11.8815 2.76396 12.9573C3.48555 14.0331 4.48711 14.7694 5.59921 15.0415C5.17654 15.1806 4.74072 15.2501 4.30319 15.2482C3.9919 15.2848 3.67848 15.2848 3.36719 15.2482C3.68298 16.4514 4.29725 17.5028 5.12372 18.2546C5.95019 19.0064 6.94735 19.421 7.97518 19.44C6.22999 21.1261 4.07438 22.0411 1.85518 22.0378H0.679199C2.9278 23.8124 5.54354 24.7551 8.2152 24.7537C10.0594 24.7694 11.8877 24.3342 13.594 23.4734C15.3002 22.6125 16.8504 21.3433 18.1545 19.7393C19.4585 18.1353 20.4904 16.2284 21.1903 14.1297C21.8901 12.031 22.244 9.78221 22.2312 7.51386C22.2312 7.25802 22.2312 6.99228 22.2312 6.71676C23.1959 5.88066 24.0328 4.84126 24.7032 3.64662Z" fill="white"/>
</g>
<defs>
<clipPath id="clip0">
<rect width="24" height="24" fill="white" transform="translate(0.703125 0.8125)"/>
</clipPath>
</defs>
</svg>
