<svg width="57" height="46" viewBox="0 0 57 46" fill="none" xmlns="http://www.w3.org/2000/svg">
<path d="M56.1606 5.74875C54.1121 6.6324 51.8829 7.26837 49.5868 7.51606C51.9707 6.09977 53.7559 3.86228 54.6075 1.22338C52.3705 2.55414 49.9198 3.48729 47.3643 3.98145C46.2961 2.83957 45.0043 1.9299 43.5693 1.30912C42.1342 0.688333 40.5867 0.369743 39.0231 0.373197C32.697 0.373197 27.6093 5.50106 27.6093 11.7937C27.6093 12.6774 27.7164 13.561 27.8904 14.4112C18.4179 13.9158 9.96969 9.39047 4.35314 2.46183C3.32974 4.20983 2.79345 6.20012 2.80005 8.22566C2.80005 12.1887 4.81504 15.6832 7.88775 17.7383C6.07696 17.667 4.30857 17.1693 2.72641 16.2856V16.4262C2.72641 21.9758 6.64929 26.5748 11.8776 27.6325C10.8959 27.8875 9.88605 28.018 8.87181 28.0208C8.12874 28.0208 7.42584 27.9472 6.71624 27.8468C8.16221 32.3721 12.373 35.6591 17.387 35.7662C13.4641 38.8389 8.55049 40.6463 3.2151 40.6463C2.25781 40.6463 1.37416 40.6129 0.457031 40.5058C5.51795 43.7525 11.5228 45.6269 17.9895 45.6269C38.9829 45.6269 50.4704 28.235 50.4704 13.1393C50.4704 12.6439 50.4704 12.1485 50.437 11.6532C52.6595 10.0264 54.6075 8.01144 56.1606 5.74875Z" fill="#2091F9"/>
</svg>
